<svg xmlns="http://www.w3.org/2000/svg" xmlns:xlink="http://www.w3.org/1999/xlink" viewBox="0 0 124 124" width="124" height="124" preserveAspectRatio="xMidYMid meet" style="width: 100%; height: 100%; transform: translate3d(0px, 0px, 0px); content-visibility: visible;"><defs><clipPath id="__lottie_element_37924"><rect width="124" height="124" x="0" y="0"></rect></clipPath><symbol id="__lottie_element_37928"><g><g transform="matrix(0.9993908405303955,-0.03489949554204941,0.03489949554204941,0.9993908405303955,35.06159973144531,20.062379837036133)" opacity="1" style="display: block;"><g opacity="1" transform="matrix(1,0,0,1,26.079999923706055,26.14900016784668)"><path fill="rgb(255,131,0)" fill-opacity="1" d=" M17.415000915527344,3.6649999618530273 C17.415000915527344,3.6649999618530273 -17.413999557495117,3.6649999618530273 -17.413999557495117,3.6649999618530273 C-19.429000854492188,3.6649999618530273 -21.07900047302246,2.0169999599456787 -21.07900047302246,0.0010000000474974513 C-21.07900047302246,-2.015000104904175 -19.429000854492188,-3.6649999618530273 -17.413999557495117,-3.6649999618530273 C-17.413999557495117,-3.6649999618530273 17.415000915527344,-3.6649999618530273 17.415000915527344,-3.6649999618530273 C19.430999755859375,-3.6649999618530273 21.07900047302246,-2.015000104904175 21.07900047302246,0.0010000000474974513 C21.07900047302246,2.0169999599456787 19.430999755859375,3.6649999618530273 17.415000915527344,3.6649999618530273z"></path></g></g></g></symbol><filter id="__lottie_element_37952" filterUnits="objectBoundingBox" x="0%" y="0%" width="100%" height="100%"><feComponentTransfer in="SourceGraphic"><feFuncA type="table" tableValues="1.0 0.0"></feFuncA></feComponentTransfer></filter><mask id="__lottie_element_37928_2" mask-type="alpha"><g filter="url(#__lottie_element_37952)"><rect width="124" height="124" x="0" y="0" fill="#ffffff" opacity="0"></rect><use xlink:href="#__lottie_element_37928"></use></g></mask></defs><g clip-path="url(#__lottie_element_37924)"><g mask="url(#__lottie_element_37928_2)" style="display: block;"><g transform="matrix(1,0,0,1,29.26799774169922,47.87699890136719)" opacity="1"><g opacity="1" transform="matrix(1,0,0,1,32.58000183105469,31.909000396728516)"><path fill="#facc15" fill-opacity="1" d=" M8.930999755859375,-31.659000396728516 C8.930999755859375,-31.659000396728516 11.746999740600586,-24.03499984741211 11.746999740600586,-24.03499984741211 C11.746999740600586,-24.03499984741211 32.33100128173828,31.659000396728516 32.33100128173828,31.659000396728516 C32.33100128173828,31.659000396728516 -32.33100128173828,31.659000396728516 -32.33100128173828,31.659000396728516 C-32.33100128173828,31.659000396728516 -11.732000350952148,-24.07699966430664 -11.732000350952148,-24.07699966430664 C-11.732000350952148,-24.07699966430664 -8.930000305175781,-31.659000396728516 -8.930000305175781,-31.659000396728516 C-8.930000305175781,-31.659000396728516 8.930999755859375,-31.659000396728516 8.930999755859375,-31.659000396728516z"></path></g></g></g><g transform="matrix(0.9850047826766968,0.1725269854068756,-0.1725269854068756,0.9850047826766968,50.992958068847656,75.7693862915039)" opacity="1" style="display: block;"><g opacity="1" transform="matrix(1,0,0,1,16.010000228881836,11.559000015258789)"><path stroke-linecap="round" stroke-linejoin="round" fill-opacity="0" stroke="rgb(88,91,212)" stroke-opacity="1" stroke-width="2" d=" M5.409999847412109,6.559000015258789 C5.409999847412109,6.559000015258789 -5.4079999923706055,6.559000015258789 -5.4079999923706055,6.559000015258789 C-8.48900032043457,6.559000015258789 -11.010000228881836,4.0370001792907715 -11.010000228881836,0.9559999704360962 C-11.010000228881836,0.9559999704360962 -11.010000228881836,-0.9580000042915344 -11.010000228881836,-0.9580000042915344 C-11.010000228881836,-4.039000034332275 -8.48900032043457,-6.559000015258789 -5.4079999923706055,-6.559000015258789 C-5.4079999923706055,-6.559000015258789 5.409999847412109,-6.559000015258789 5.409999847412109,-6.559000015258789 C8.489999771118164,-6.559000015258789 11.010000228881836,-4.039000034332275 11.010000228881836,-0.9580000042915344 C11.010000228881836,-0.9580000042915344 11.010000228881836,0.9559999704360962 11.010000228881836,0.9559999704360962 C11.010000228881836,4.0370001792907715 8.489999771118164,6.559000015258789 5.409999847412109,6.559000015258789z"></path></g><g opacity="1" transform="matrix(1,0,0,1,16.797000885009766,8.027000427246094)"><path fill="rgb(88,91,212)" fill-opacity="1" d=" M3.1700000762939453,3.0269999504089355 C3.1700000762939453,3.0269999504089355 -3.1689999103546143,3.0269999504089355 -3.1689999103546143,3.0269999504089355 C-4.833000183105469,3.0269999504089355 -6.195000171661377,1.6649999618530273 -6.195000171661377,0.0010000000474974513 C-6.195000171661377,-1.6640000343322754 -4.833000183105469,-3.0269999504089355 -3.1689999103546143,-3.0269999504089355 C-3.1689999103546143,-3.0269999504089355 3.1700000762939453,-3.0269999504089355 3.1700000762939453,-3.0269999504089355 C4.835000038146973,-3.0269999504089355 6.195000171661377,-1.6640000343322754 6.195000171661377,0.0010000000474974513 C6.195000171661377,1.6649999618530273 4.835000038146973,3.0269999504089355 3.1700000762939453,3.0269999504089355z"></path></g></g><g transform="matrix(0.9404698014259338,0.33987727761268616,-0.33987727761268616,0.9404698014259338,52.10845184326172,67.32093048095703)" opacity="1" style="display: block;"><g opacity="1" transform="matrix(1,0,0,1,6.234000205993652,4.4730000495910645)"><path stroke-linecap="round" stroke-linejoin="round" fill-opacity="0" stroke="rgb(88,91,212)" stroke-opacity="1" stroke-width="2" d=" M-0.009999999776482582,1.4299999475479126 C-0.009999999776482582,1.4299999475479126 0.009999999776482582,-1.4299999475479126 0.009999999776482582,-1.4299999475479126"></path></g><g opacity="1" transform="matrix(1,0,0,1,9.074000358581543,9.074000358581543)"><path stroke-linecap="round" stroke-linejoin="round" fill-opacity="0" stroke="rgb(88,91,212)" stroke-opacity="1" stroke-width="2" d=" M4.073999881744385,0.0010000000474974513 C4.073999881744385,2.250999927520752 2.25,4.073999881744385 0,4.073999881744385 C-2.25,4.073999881744385 -4.073999881744385,2.250999927520752 -4.073999881744385,0.0010000000474974513 C-4.073999881744385,-2.249000072479248 -2.25,-4.073999881744385 0,-4.073999881744385 C2.25,-4.073999881744385 4.073999881744385,-2.249000072479248 4.073999881744385,0.0010000000474974513z"></path></g><g opacity="1" transform="matrix(1,0,0,1,11.9350004196167,4.4730000495910645)"><path stroke-linecap="round" stroke-linejoin="round" fill-opacity="0" stroke="rgb(88,91,212)" stroke-opacity="1" stroke-width="2" d=" M-0.009999999776482582,1.4299999475479126 C-0.009999999776482582,1.4299999475479126 0.009999999776482582,-1.4299999475479126 0.009999999776482582,-1.4299999475479126"></path></g><g opacity="1" transform="matrix(1,0,0,1,9.074000358581543,11.390000343322754)"><path fill="rgb(88,91,212)" fill-opacity="1" d=" M1.7569999694824219,0 C1.7569999694824219,0.9710000157356262 0.9700000286102295,1.7569999694824219 0,1.7569999694824219 C-0.9710000157356262,1.7569999694824219 -1.7569999694824219,0.9710000157356262 -1.7569999694824219,0 C-1.7569999694824219,-0.9700000286102295 -0.9710000157356262,-1.7569999694824219 0,-1.7569999694824219 C0.9700000286102295,-1.7569999694824219 1.7569999694824219,-0.9700000286102295 1.7569999694824219,0z"></path></g></g><g transform="matrix(0.9404698014259338,0.33987727761268616,-0.33987727761268616,0.9404698014259338,51.56687545776367,74.08023834228516)" opacity="1" style="display: block;"><g opacity="1" transform="matrix(0.9966094493865967,0.08227774500846863,-0.08227774500846863,0.9966094493865967,2.2211151123046875,1.3918015956878662)"><path stroke-linecap="round" stroke-linejoin="round" fill-opacity="0" stroke="rgb(88,91,212)" stroke-opacity="1" stroke-width="2" d=" M1.2569999694824219,-0.5 C1.2569999694824219,-0.5 -1.2569999694824219,0.5 -1.2569999694824219,0.5"></path></g><g opacity="1" transform="matrix(0.9966094493865967,0.08227774500846863,-0.08227774500846863,0.9966094493865967,12.567434310913086,1.608808994293213)"><path stroke-linecap="round" stroke-linejoin="round" fill-opacity="0" stroke="rgb(88,91,212)" stroke-opacity="1" stroke-width="2" d=" M1.2569999694824219,0.5 C1.2569999694824219,0.5 -1.2569999694824219,-0.5 -1.2569999694824219,-0.5"></path></g></g><g transform="matrix(0.9850047826766968,0.1725269854068756,-0.1725269854068756,0.9850047826766968,52.08283233642578,92.73177337646484)" opacity="1" style="display: block;"><g opacity="1" transform="matrix(1,0,0,1,2.302999973297119,4.138000011444092)"><path stroke-linecap="round" stroke-linejoin="round" fill-opacity="0" stroke="rgb(88,91,212)" stroke-opacity="1" stroke-width="2" d=" M1.3029999732971191,-3.138000011444092 C1.3029999732971191,-3.138000011444092 -2.061000108718872,0.26899999380111694 -4.927999973297119,1.2009999752044678"></path></g><g opacity="1" transform="matrix(1,0,0,1,6.964000225067139,4.436999797821045)"><path stroke-linecap="round" stroke-linejoin="round" fill-opacity="0" stroke="rgb(88,91,212)" stroke-opacity="1" stroke-width="2" d=" M-1.1710000038146973,-2.8389999866485596 C-1.1710000038146973,-2.8389999866485596 -0.4775473475456238,1.5966227054595947 -2.091477394104004,3.789058208465576"></path></g><g opacity="1" transform="matrix(1,0,0,1,16.048999786376953,4.4720001220703125)"><path stroke-linecap="round" stroke-linejoin="round" fill-opacity="0" stroke="rgb(88,91,212)" stroke-opacity="1" stroke-width="2" d=" M1.1640000343322754,-2.803999900817871 C1.1640000343322754,-2.803999900817871 0.8025108575820923,2.336824893951416 -2.0434699058532715,3.209306001663208"></path></g><g opacity="1" transform="matrix(1,0,0,1,20.849000930786133,4.436999797821045)"><path stroke-linecap="round" stroke-linejoin="round" fill-opacity="0" stroke="rgb(88,91,212)" stroke-opacity="1" stroke-width="2" d=" M-1.1710000038146973,-2.8389999866485596 C-1.1710000038146973,-2.8389999866485596 0.21150869131088257,3.4526004791259766 -2.1317458152770996,4.532409191131592"></path></g></g><g transform="matrix(0.9993908405303955,-0.03489949554204941,0.03489949554204941,0.9993908405303955,57.7232551574707,13.324395179748535)" opacity="1" style="display: block;"><g opacity="1" transform="matrix(1,0,0,1,-22.875,4.874999523162842)"><path stroke-linecap="round" stroke-linejoin="round" fill-opacity="0" stroke="rgb(88,91,212)" stroke-opacity="1" stroke-width="2" d=" M26.079999923706055,7.723999977111816 C26.079999923706055,7.723999977111816 26.079999923706055,1 26.079999923706055,1"></path></g><g opacity="1" transform="matrix(1,0,0,1,3.2360000610351562,3.2360000610351562)"><path fill="#facc15" fill-opacity="1" d=" M2.9860000610351562,0 C2.9860000610351562,1.6490000486373901 1.6490000486373901,2.9860000610351562 -0.0010000000474974513,2.9860000610351562 C-1.649999976158142,2.9860000610351562 -2.9860000610351562,1.6490000486373901 -2.9860000610351562,0 C-2.9860000610351562,-1.6490000486373901 -1.649999976158142,-2.9860000610351562 -0.0010000000474974513,-2.9860000610351562 C1.6490000486373901,-2.9860000610351562 2.9860000610351562,-1.6490000486373901 2.9860000610351562,0z"></path></g></g><g transform="matrix(0.9993908405303955,-0.03489949554204941,0.03489949554204941,0.9993908405303955,35.06159973144531,20.062379837036133)" opacity="1" style="display: block;"><g opacity="1" transform="matrix(1,0,0,1,26.079999923706055,15.050000190734863)"><path stroke-linecap="round" stroke-linejoin="round" fill-opacity="0" stroke="rgb(88,91,212)" stroke-opacity="1" stroke-width="2" d=" M-14.652000427246094,7.326000213623047 C-14.652000427246094,-0.765999972820282 -8.093000411987305,-7.326000213623047 -0.0010000000474974513,-7.326000213623047 C8.090999603271484,-7.326000213623047 14.652000427246094,-0.765999972820282 14.652000427246094,7.326000213623047"></path></g><g opacity="1" transform="matrix(1,0,0,1,26.079999923706055,26.14900016784668)"><path stroke-linecap="round" stroke-linejoin="round" fill-opacity="0" stroke="rgb(88,91,212)" stroke-opacity="1" stroke-width="2" d=" M17.415000915527344,3.6649999618530273 C17.415000915527344,3.6649999618530273 -17.413999557495117,3.6649999618530273 -17.413999557495117,3.6649999618530273 C-19.429000854492188,3.6649999618530273 -21.07900047302246,2.0169999599456787 -21.07900047302246,0.0010000000474974513 C-21.07900047302246,-2.015000104904175 -19.429000854492188,-3.6649999618530273 -17.413999557495117,-3.6649999618530273 C-17.413999557495117,-3.6649999618530273 17.415000915527344,-3.6649999618530273 17.415000915527344,-3.6649999618530273 C19.430999755859375,-3.6649999618530273 21.07900047302246,-2.015000104904175 21.07900047302246,0.0010000000474974513 C21.07900047302246,2.0169999599456787 19.430999755859375,3.6649999618530273 17.415000915527344,3.6649999618530273z"></path></g><g opacity="1" transform="matrix(1,0,0,1,17.547000885009766,26.14900016784668)"><path fill="rgb(88,91,212)" fill-opacity="1" d=" M1.4989999532699585,0.0010000000474974513 C1.4989999532699585,0.8289999961853027 0.828000009059906,1.4989999532699585 -0.0010000000474974513,1.4989999532699585 C-0.8289999961853027,1.4989999532699585 -1.4989999532699585,0.8289999961853027 -1.4989999532699585,0.0010000000474974513 C-1.4989999532699585,-0.8270000219345093 -0.8289999961853027,-1.4989999532699585 -0.0010000000474974513,-1.4989999532699585 C0.828000009059906,-1.4989999532699585 1.4989999532699585,-0.8270000219345093 1.4989999532699585,0.0010000000474974513z"></path></g><g opacity="1" transform="matrix(1,0,0,1,26.079999923706055,26.14900016784668)"><path fill="rgb(88,91,212)" fill-opacity="1" d=" M1.4989999532699585,0.0010000000474974513 C1.4989999532699585,0.8289999961853027 0.8289999961853027,1.4989999532699585 0.0010000000474974513,1.4989999532699585 C-0.8270000219345093,1.4989999532699585 -1.4989999532699585,0.8289999961853027 -1.4989999532699585,0.0010000000474974513 C-1.4989999532699585,-0.8270000219345093 -0.8270000219345093,-1.4989999532699585 0.0010000000474974513,-1.4989999532699585 C0.8289999961853027,-1.4989999532699585 1.4989999532699585,-0.8270000219345093 1.4989999532699585,0.0010000000474974513z"></path></g><g opacity="1" transform="matrix(1,0,0,1,34.61199951171875,26.14900016784668)"><path fill="rgb(88,91,212)" fill-opacity="1" d=" M1.4989999532699585,0.0010000000474974513 C1.4989999532699585,0.8289999961853027 0.828000009059906,1.4989999532699585 0,1.4989999532699585 C-0.828000009059906,1.4989999532699585 -1.4989999532699585,0.8289999961853027 -1.4989999532699585,0.0010000000474974513 C-1.4989999532699585,-0.8270000219345093 -0.828000009059906,-1.4989999532699585 0,-1.4989999532699585 C0.828000009059906,-1.4989999532699585 1.4989999532699585,-0.8270000219345093 1.4989999532699585,0.0010000000474974513z"></path></g></g><g transform="matrix(0.9993908405303955,-0.03489949554204941,0.03489949554204941,0.9993908405303955,43.01299285888672,48.61727523803711)" opacity="1" style="display: block;"><g opacity="1" transform="matrix(1,0.0000052333712119434495,-0.0000052333712119434495,1,4.069983959197998,4.008983612060547)"><path stroke-linecap="round" stroke-linejoin="round" fill-opacity="0" stroke="rgb(88,91,212)" stroke-opacity="1" stroke-width="2" d=" M3.069999933242798,-2.946000099182129 C3.069999933242798,-2.946000099182129 -3.069999933242798,2.946000099182129 -3.069999933242798,2.946000099182129"></path></g><g opacity="1" transform="matrix(1,0.0000052333712119434495,-0.0000052333712119434495,1,34.187984466552734,4.0090155601501465)"><path stroke-linecap="round" stroke-linejoin="round" fill-opacity="0" stroke="rgb(88,91,212)" stroke-opacity="1" stroke-width="2" d=" M-3.007999897003174,-3.007999897003174 C-3.007999897003174,-3.007999897003174 3.007999897003174,3.007999897003174 3.007999897003174,3.007999897003174"></path></g></g></g></svg>