<svg xmlns="http://www.w3.org/2000/svg" xmlns:xlink="http://www.w3.org/1999/xlink" viewBox="0 0 1000 1000" width="1000" height="1000" preserveAspectRatio="xMidYMid meet" style="width: 100%; height: 100%; transform: translate3d(0px, 0px, 0px); content-visibility: visible;"><defs><clipPath id="__lottie_element_1958"><rect width="1000" height="1000" x="0" y="0"></rect></clipPath><clipPath id="__lottie_element_1960">
<path d="M0,0 L1000,0 L1000,667 L0,667z"></path></clipPath><symbol id="__lottie_element_2041"><g>

<g transform="matrix(1,0,0,1,500,333.5)" opacity="1" style="display: none;">

<g opacity="1" transform="matrix(1,0,0,1,0,0)">
<path fill="rgb(84,8,13)" fill-opacity="1" d=" M-241,93.5 C-241,93.5 -457,205.5 -457,205.5 C-457,205.5 -299,328.5 -299,328.5 C-299,328.5 171,331.5 171,331.5 C171,331.5 184.5,229 184.5,229 C184.5,229 -26,229 -26,229 C-26,229 -79,101.5 -79,101.5 C-79,101.5 -241,93.5 -241,93.5z"></path></g></g></g></symbol><filter id="__lottie_element_2095" filterUnits="objectBoundingBox" x="0%" y="0%" width="100%" height="100%"><feComponentTransfer in="SourceGraphic"><feFuncA type="table" tableValues="1.0 0.0"></feFuncA></feComponentTransfer></filter><mask id="__lottie_element_2041_2" mask-type="alpha">

<g filter="url(#__lottie_element_2095)"><rect width="1000" height="667" x="0" y="0" fill="#ffffff" opacity="0"></rect><use xlink:href="#__lottie_element_2041"></use></g></mask></defs>
<g opacity="1" transform="matrix(1,0,0,1,705.4940185546875,500.1210021972656)"><path fill="rgb(31,41,52,1)" fill-opacity="1" d=" M-335.1549987792969,204.45700073242188 C-54.2400016784668,226.78900146484375 -64.30500030517578,497.65301513671875 190.00799560546875,498.5480041503906 C565.1849975585938,499.8710021972656 613.6389770507812,36.4640007019043 467.0119934082031,-195.29299926757812 C312.8429870605469,-438.9729919433594 10.01200008392334,-499.8710021972656 -250.2949981689453,-407.7720031738281 C-617.9669799804688,-277.66900634765625 -636.2369995117188,180.52000427246094 -335.1549987792969,204.45700073242188z"></path></g>
<g clip-path="url(#__lottie_element_1958)">

<g clip-path="url(#__lottie_element_1960)" transform="matrix(1.5759999752044678,0,0,1.5759999752044678,-532,-90.09600830078125)" opacity="1" style="display: block;">

<g transform="matrix(1.3350000381469727,0,0,1.3350000381469727,-0.62567138671875,-0.24957275390625)" opacity="1" style="display: block;"><g opacity="1" transform="matrix(1,0,0,1,0,0)">
<path stroke-linecap="round" stroke-linejoin="round" fill-opacity="0" stroke="rgb(232,244,255)" stroke-opacity="1" stroke-width="0.98" d=" M678.2769775390625,421.177001953125 C678.2769775390625,421.177001953125 304.83599853515625,421.177001953125 304.83599853515625,421.177001953125 C304.83599853515625,421.177001953125 678.2769775390625,421.177001953125 678.2769775390625,421.177001953125z"></path></g></g><g transform="matrix(1.3350000381469727,0,0,1.3350000381469727,-0.6258544921875,-0.249542236328125)" opacity="1" style="display: block;"><g opacity="1" transform="matrix(1,0,0,1,490.9100036621094,245.61300659179688)">
<path fill="rgb(15,13,19)" fill-opacity="1" d=" M-37.85499954223633,7.047999858856201 C-32.683998107910156,-4.502999782562256 22.488000869750977,-17.513999938964844 37.85499954223633,-6.0879998207092285 C37.85499954223633,-6.0879998207092285 31.70400047302246,10.342000007629395 31.70400047302246,10.342000007629395 C31.70400047302246,10.342000007629395 -23.843000411987305,17.513999938964844 -23.843000411987305,17.513999938964844 C-23.843000411987305,17.513999938964844 -37.85499954223633,7.047999858856201 -37.85499954223633,7.047999858856201z"></path></g></g><g transform="matrix(1.262465238571167,-0.43405821919441223,0.43405821919441223,1.262465238571167,-73.794189453125,238.4765625)" opacity="1" style="display: block;">

<g opacity="1" transform="matrix(1,0,0,1,500.5119934082031,192.41799926757812)">
<path fill="rgb(15,13,19)" fill-opacity="1" d=" M27.079999923706055,-44.70399856567383 C40.95100021362305,-30.875999450683594 37.948001861572266,-13.694999694824219 41.95199966430664,-0.18299999833106995 C45.95500183105469,13.32800006866455 56.29800033569336,28.673999786376953 46.12200164794922,41.35100173950195 C35.946998596191406,54.02799987792969 12.76099967956543,55.862998962402344 5.921999931335449,41.35100173950195 C-0.9169999957084656,26.839000701904297 -14.26200008392334,25.003999710083008 -23.187000274658203,30.841999053955078 C-32.11000061035156,36.680999755859375 -48.29100036621094,37.013999938964844 -52.29399871826172,24.336999893188477 C-56.29800033569336,11.65999984741211 -40.45100021362305,0.8169999718666077 -30.274999618530273,1.4839999675750732 C-20.10099983215332,2.1510000228881836 -11.479000091552734,-55.862998962402344 27.079999923706055,-44.70399856567383z"></path></g></g><g transform="matrix(1.262465238571167,-0.43405821919441223,0.43405821919441223,1.262465238571167,-73.794189453125,238.4765625)" opacity="1" style="display: block;"><g opacity="1" transform="matrix(1,0,0,1,494.3389892578125,234.218994140625)">
<path fill="rgb(228,152,125)" fill-opacity="1" d=" M-17.930999755859375,-20.966999053955078 C-17.930999755859375,-20.966999053955078 -24.770000457763672,27.406999588012695 -24.770000457763672,27.406999588012695 C-24.770000457763672,27.406999588012695 15.597000122070312,26.4060001373291 15.597000122070312,26.4060001373291 C15.597000122070312,26.4060001373291 24.770000457763672,-27.406999588012695 24.770000457763672,-27.406999588012695 C24.770000457763672,-27.406999588012695 -17.930999755859375,-20.966999053955078 -17.930999755859375,-20.966999053955078z"></path></g><g opacity="1" transform="matrix(1,0,0,1,489.5820007324219,224.447998046875)">
<path fill="rgb(218,120,93)" fill-opacity="1" d=" M-16.392000198364258,11.571999549865723 C-16.392000198364258,11.571999549865723 16.392000198364258,-11.571999549865723 16.392000198364258,-11.571999549865723 C16.392000198364258,-11.571999549865723 -13.17300033569336,-11.196000099182129 -13.17300033569336,-11.196000099182129 C-13.17300033569336,-11.196000099182129 -16.392000198364258,11.571999549865723 -16.392000198364258,11.571999549865723z"></path></g></g><g transform="matrix(1.262465238571167,-0.43405821919441223,0.43405821919441223,1.262465238571167,-73.794189453125,238.4765625)" opacity="1" style="display: block;">


<g opacity="1" transform="matrix(1,0,0,1,495.75799560546875,184.38499450683594)">
<path fill="rgb(228,152,125)" fill-opacity="1" d=" M10.842000007629395,-32.518001556396484 C-9.767000198364258,-38.54199981689453 -33.02799987792969,-22.676000595092773 -34.02899932861328,3.51200008392334 C-35.02899932861328,29.701000213623047 -15.678999900817871,38.54199981689453 3.8369998931884766,34.87200164794922 C23.35300064086914,31.202999114990234 35.02899932861328,13.020999908447266 32.71699905395508,-6.394000053405762 C31.01799964904785,-20.655000686645508 21.684999465942383,-29.349000930786133 10.842000007629395,-32.518001556396484z"></path></g><g opacity="1" transform="matrix(1,0,0,1,498.218994140625,165.2949981689453)">
<path fill="rgb(15,13,19)" fill-opacity="1" d=" M-37.047000885009766,6.039000034332275 C-37.047000885009766,6.039000034332275 1.0420000553131104,12.76099967956543 1.0420000553131104,12.76099967956543 C1.0420000553131104,12.76099967956543 7.7129998207092285,0.75 16.554000854492188,-1.5850000381469727 C9.04800033569336,9.925000190734863 15.38700008392334,20.024999618530273 15.38700008392334,20.024999618530273 C15.38700008392334,20.024999618530273 13.385000228881836,29.941999435424805 13.385000228881836,29.941999435424805 C13.385000228881836,29.941999435424805 20.389999389648438,32.11000061035156 20.389999389648438,32.11000061035156 C20.389999389648438,32.11000061035156 23.82200050354004,24.590999603271484 29.863000869750977,24.930999755859375 C40.40700149536133,23.770000457763672 41.07400131225586,-1.7519999742507935 32.73400115966797,-13.76200008392334 C28.339000701904297,-20.090999603271484 13.635000228881836,-32.11000061035156 -11.76200008392334,-26.606000900268555 C-30.490999221801758,-22.54599952697754 -37.766998291015625,-7.146999835968018 -40.29600143432617,0.6589999794960022 C-41.07500076293945,3.063999891281128 -39.5369987487793,5.599999904632568 -37.047000885009766,6.039000034332275z"></path></g><g opacity="1" transform="matrix(1,0,0,1,484.5190124511719,203.86900329589844)">
<path stroke-linecap="round" stroke-linejoin="round" fill-opacity="0" stroke="rgb(15,13,19)" stroke-opacity="1" stroke-width="0.98" d=" M-5.566999912261963,-1.5019999742507935 C-5.566999912261963,-1.5019999742507935 -0.18799999356269836,2.250999927520752 5.566999912261963,-2.252000093460083"></path></g><g opacity="1" transform="matrix(1,0,0,1,475.5950012207031,189.60699462890625)">
<path stroke-linecap="round" stroke-linejoin="round" fill-opacity="0" stroke="rgb(15,13,19)" stroke-opacity="1" stroke-width="0.98" d=" M3.3570001125335693,-7.25600004196167 C3.3570001125335693,-7.25600004196167 -3.3570001125335693,5.880000114440918 -3.3570001125335693,5.880000114440918 C-3.3570001125335693,5.880000114440918 1.7300000190734863,7.25600004196167 1.7300000190734863,7.25600004196167"></path></g><g opacity="1" transform="matrix(1,0,0,1,526.4039916992188,195.03599548339844)">
<path fill="rgb(228,152,125)" fill-opacity="1" d=" M-3.2890000343322754,-7.429999828338623 C3.7170000076293945,-14.185999870300293 11.170999526977539,-11.182999610900879 10.258000373840332,-2.1760001182556152 C9.345999717712402,6.831999778747559 1.555999994277954,14.185999870300293 -6.809999942779541,12.88599967956543 C-11.17199993133545,4.204999923706055 -3.2890000343322754,-7.429999828338623 -3.2890000343322754,-7.429999828338623z"></path></g><g opacity="1" transform="matrix(1,0,0,1,527.4299926757812,194.76699829101562)">
<path stroke-linecap="round" stroke-linejoin="round" fill-opacity="0" stroke="rgb(15,13,19)" stroke-opacity="1" stroke-width="0.98" d=" M4.880000114440918,-5.848999977111816 C0.12600000202655792,-7.413000106811523 -4.880000114440918,0.5320000052452087 -2.252000093460083,7.413000106811523"></path></g><g opacity="1" transform="matrix(1,0,0,1,527.9569702148438,195.19500732421875)">
<path stroke-linecap="round" stroke-linejoin="round" fill-opacity="0" stroke="rgb(15,13,19)" stroke-opacity="1" stroke-width="0.98" d=" M-3.4760000705718994,2.2100000381469727 C-3.4670000076293945,-2.2100000381469727 3.4760000705718994,-1.6469999551773071 3.0390000343322754,1.6679999828338623"></path></g></g><g transform="matrix(1.262465238571167,-0.43405821919441223,0.43405821919441223,1.262465238571167,-73.794189453125,238.4765625)" opacity="1" style="display: block;"><g opacity="1" transform="matrix(1,0,0,1,471.1300048828125,184.85899353027344)">
<path fill="rgb(15,13,19)" fill-opacity="1" d=" M-0.3720000088214874,2.2809998989105225 C-0.3720000088214874,2.2809998989105225 -0.6110000014305115,2.2290000915527344 -0.6110000014305115,2.2290000915527344 C-1.274999976158142,2.0840001106262207 -1.7009999752044678,1.4220000505447388 -1.555999994277954,0.7580000162124634 C-1.555999994277954,0.7580000162124634 -1.100000023841858,-1.3359999656677246 -1.100000023841858,-1.3359999656677246 C-0.9539999961853027,-2.000999927520752 -0.2919999957084656,-2.4260001182556152 0.3720000088214874,-2.2809998989105225 C0.3720000088214874,-2.2809998989105225 0.6110000014305115,-2.2279999256134033 0.6110000014305115,-2.2279999256134033 C1.2760000228881836,-2.0840001106262207 1.7009999752044678,-1.4220000505447388 1.555999994277954,-0.7570000290870667 C1.555999994277954,-0.7570000290870667 1.100000023841858,1.3370000123977661 1.100000023841858,1.3370000123977661 C0.9549999833106995,2.000999927520752 0.2930000126361847,2.4260001182556152 -0.3720000088214874,2.2809998989105225z"></path></g></g><g transform="matrix(1.262465238571167,-0.43405821919441223,0.43405821919441223,1.262465238571167,-73.794189453125,238.4765625)" opacity="1" style="display: block;"><g opacity="1" transform="matrix(1,0,0,1,495.2279968261719,188.28500366210938)">
<path fill="rgb(15,13,19)" fill-opacity="1" d=" M-0.3709999918937683,2.2809998989105225 C-0.3709999918937683,2.2809998989105225 -0.6119999885559082,2.2290000915527344 -0.6119999885559082,2.2290000915527344 C-1.2760000228881836,2.0840001106262207 -1.7009999752044678,1.4220000505447388 -1.5570000410079956,0.7580000162124634 C-1.5570000410079956,0.7580000162124634 -1.100000023841858,-1.3359999656677246 -1.100000023841858,-1.3359999656677246 C-0.9549999833106995,-2.000999927520752 -0.2930000126361847,-2.4260001182556152 0.3709999918937683,-2.2809998989105225 C0.3709999918937683,-2.2809998989105225 0.6110000014305115,-2.2279999256134033 0.6110000014305115,-2.2279999256134033 C1.274999976158142,-2.0840001106262207 1.7000000476837158,-1.4220000505447388 1.555999994277954,-0.7570000290870667 C1.555999994277954,-0.7570000290870667 1.100000023841858,1.3370000123977661 1.100000023841858,1.3370000123977661 C0.9539999961853027,2.000999927520752 0.2930000126361847,2.4260001182556152 -0.3709999918937683,2.2809998989105225z"></path></g></g><g transform="matrix(1.262465238571167,-0.43405821919441223,0.43405821919441223,1.262465238571167,-73.97225952148438,236.4230499267578)" opacity="1" style="display: block;"><g opacity="1" transform="matrix(1,0,0,1,465.77398681640625,185.32000732421875)">
<path stroke-linecap="round" stroke-linejoin="round" fill-opacity="0" stroke="rgb(15,13,19)" stroke-opacity="1" stroke-width="0.98" d=" M9.821000099182129,0 C9.821000099182129,5.423999786376953 5.425000190734863,9.821000099182129 0.0010000000474974513,9.821000099182129 C-5.422999858856201,9.821000099182129 -9.821000099182129,5.423999786376953 -9.821000099182129,0 C-9.821000099182129,-5.423999786376953 -5.422999858856201,-9.821000099182129 0.0010000000474974513,-9.821000099182129 C5.425000190734863,-9.821000099182129 9.821000099182129,-5.423999786376953 9.821000099182129,0z"></path></g><g opacity="1" transform="matrix(1,0,0,1,490.08599853515625,188.28500366210938)">
<path stroke-linecap="round" stroke-linejoin="round" fill-opacity="0" stroke="rgb(15,13,19)" stroke-opacity="1" stroke-width="0.98" d=" M9.821000099182129,0 C9.821000099182129,5.423999786376953 5.423999786376953,9.821000099182129 0,9.821000099182129 C-5.423999786376953,9.821000099182129 -9.821000099182129,5.423999786376953 -9.821000099182129,0 C-9.821000099182129,-5.423999786376953 -5.423999786376953,-9.821000099182129 0,-9.821000099182129 C5.423999786376953,-9.821000099182129 9.821000099182129,-5.423999786376953 9.821000099182129,0z"></path></g></g><g transform="matrix(1.3350000381469727,0,0,1.3350000381469727,-0.6258544921875,-0.249267578125)" opacity="1" style="display: block;"><g opacity="1" transform="matrix(1,0,0,1,505.0989990234375,330.35101318359375)">
<path fill="rgb(250,188,4)" fill-opacity="1" d=" M-52.04399871826172,-77.69100189208984 C-52.04399871826172,-77.69100189208984 -47.665000915527344,-71.30999755859375 -20.57900047302246,-71.43499755859375 C6.50600004196167,-71.55999755859375 23.666000366210938,-90.82599639892578 23.666000366210938,-90.82599639892578 C23.666000366210938,-90.82599639892578 19.85099983215332,-69.89299774169922 19.85099983215332,-69.89299774169922 C19.85099983215332,-69.89299774169922 23.520000457763672,-72.56199645996094 47.540000915527344,-77.81600189208984 C71.55999755859375,-83.06999969482422 84.07099914550781,-70.36199951171875 84.82099914550781,-49.44300079345703 C85.5719985961914,-28.52400016784668 60.551998138427734,-6.005000114440918 60.551998138427734,-6.005000114440918 C60.551998138427734,-6.005000114440918 45.882999420166016,90.82599639892578 45.882999420166016,90.82599639892578 C45.882999420166016,90.82599639892578 -62.301998138427734,90.82599639892578 -62.301998138427734,90.82599639892578 C-62.301998138427734,90.82599639892578 -62.301998138427734,-7.506999969482422 -62.301998138427734,-7.506999969482422 C-62.301998138427734,-7.506999969482422 -85.5719985961914,-25.77199935913086 -83.56999969482422,-45.53900146484375 C-81.56800079345703,-65.30500030517578 -63.67900085449219,-73.56099700927734 -48.52299880981445,-68.7239990234375 C-50.04199981689453,-71.33000183105469 -52.04399871826172,-77.69100189208984 -52.04399871826172,-77.69100189208984z"></path></g><g opacity="1" transform="matrix(1,0,0,1,0,0)">
<path stroke-linecap="round" stroke-linejoin="round" fill-opacity="0" stroke="rgb(15,13,19)" stroke-opacity="1" stroke-width="0.98" d=" M496.17498779296875,311.3689880371094 C496.17498779296875,311.3689880371094 530.0360107421875,311.3689880371094 530.0360107421875,311.3689880371094"></path></g><g opacity="1" transform="matrix(1,0,0,1,513.10498046875,321.1969909667969)">
<path stroke-linecap="round" stroke-linejoin="round" fill-opacity="0" stroke="rgb(15,13,19)" stroke-opacity="1" stroke-width="0.98" d=" M-16.93000030517578,-15.904999732971191 C-16.93000030517578,-15.904999732971191 16.93000030517578,-15.904999732971191 16.93000030517578,-15.904999732971191 C16.93000030517578,-15.904999732971191 16.93000030517578,6.882999897003174 16.93000030517578,6.882999897003174 C16.93000030517578,11.866000175476074 12.890999794006348,15.904999732971191 7.908999919891357,15.904999732971191 C7.908999919891357,15.904999732971191 -7.908999919891357,15.904999732971191 -7.908999919891357,15.904999732971191 C-12.892000198364258,15.904999732971191 -16.93000030517578,11.866000175476074 -16.93000030517578,6.882999897003174 C-16.93000030517578,6.882999897003174 -16.93000030517578,-15.904999732971191 -16.93000030517578,-15.904999732971191z"></path></g><g opacity="1" transform="matrix(1,0,0,1,420.2770080566406,307.9599914550781)">
<path fill="rgb(250,188,4)" fill-opacity="1" d=" M4.764999866485596,-34.6510009765625 C-11.758999824523926,-6.632999897003174 -24.770000457763672,24.89299964904785 -24.770000457763672,24.89299964904785 C-24.770000457763672,24.89299964904785 22.520000457763672,34.652000427246094 22.520000457763672,34.652000427246094 C22.520000457763672,34.652000427246094 24.770999908447266,-6.382999897003174 24.770999908447266,-6.382999897003174 C24.770999908447266,-6.382999897003174 4.764999866485596,-34.6510009765625 4.764999866485596,-34.6510009765625z"></path></g><g opacity="1" transform="matrix(1,0,0,1,443.9219970703125,333.4779968261719)">
<path stroke-linecap="round" stroke-linejoin="round" fill-opacity="0" stroke="rgb(15,13,19)" stroke-opacity="1" stroke-width="0.98" d=" M1.125,-31.902000427246094 C1.125,-31.902000427246094 -1.1260000467300415,31.902000427246094 -1.1260000467300415,31.902000427246094"></path></g><g opacity="1" transform="matrix(1,0,0,1,524.93798828125,258.9150085449219)">
<path stroke-linecap="round" stroke-linejoin="round" fill-opacity="0" stroke="rgb(15,13,19)" stroke-opacity="1" stroke-width="0.98" d=" M-3.8259999752044678,19.391000747680664 C-3.8259999752044678,19.391000747680664 3.8259999752044678,-19.391000747680664 3.8259999752044678,-19.391000747680664"></path></g><g opacity="1" transform="matrix(1,0,0,1,457.9729919433594,264.4070129394531)">
<path stroke-linecap="round" stroke-linejoin="round" fill-opacity="0" stroke="rgb(15,13,19)" stroke-opacity="1" stroke-width="0.98" d=" M4.919000148773193,11.746999740600586 C4.919000148773193,11.746999740600586 -4.918000221252441,-11.746999740600586 -4.918000221252441,-11.746999740600586"></path></g><g opacity="1" transform="matrix(1,0,0,1,440.8909912109375,311.0450134277344)">
<path stroke-linecap="round" stroke-linejoin="round" fill-opacity="0" stroke="rgb(15,13,19)" stroke-opacity="1" stroke-width="0.98" d=" M-3.683000087738037,-3.9539999961853027 C-3.683000087738037,-3.9539999961853027 3.683000087738037,3.9539999961853027 3.683000087738037,3.9539999961853027"></path></g></g><g transform="matrix(1.3350000381469727,0,0,1.3350000381469727,-0.6252130270004272,-0.24921515583992004)" opacity="1" style="display: block;"><g opacity="1" transform="matrix(1,0,0,1,606.3920288085938,321.677001953125)">
<path fill="rgb(15,13,19)" fill-opacity="1" d=" M31.444000244140625,-18.099000930786133 C38.492000579833984,-16.513999938964844 31.650999069213867,3.1689999103546143 6.130000114440918,13.177000045776367 C-19.392000198364258,23.18600082397461 -38.49100112915039,13.177000045776367 -38.49100112915039,13.177000045776367 C-38.49100112915039,13.177000045776367 -22.809999465942383,-23.187000274658203 31.444000244140625,-18.099000930786133z"></path></g></g><g transform="matrix(1.3350000381469727,0,0,1.3350000381469727,-0.6239092946052551,-0.25053924322128296)" opacity="1" style="display: block;"><g opacity="1" transform="matrix(1,0,0,1,621.947021484375,361.62701416015625)">
<path fill="rgb(228,152,125)" fill-opacity="1" d=" M27.77400016784668,0 C27.77400016784668,15.33899974822998 15.33899974822998,27.773000717163086 0.0010000000474974513,27.773000717163086 C-15.338000297546387,27.773000717163086 -27.773000717163086,15.33899974822998 -27.773000717163086,0 C-27.773000717163086,-15.33899974822998 -15.338000297546387,-27.773000717163086 0.0010000000474974513,-27.773000717163086 C15.33899974822998,-27.773000717163086 27.77400016784668,-15.33899974822998 27.77400016784668,0z"></path></g><g opacity="1" transform="matrix(1,0,0,1,580.7249755859375,377.56298828125)">
<path fill="rgb(228,152,125)" fill-opacity="1" d=" M26.591999053955078,-39.54600143432617 C26.591999053955078,-39.54600143432617 -57.111000061035156,5.833000183105469 -57.111000061035156,5.833000183105469 C-57.111000061035156,5.833000183105469 -32.689998626708984,39.54600143432617 -32.689998626708984,39.54600143432617 C-32.689998626708984,39.54600143432617 57.111000061035156,6.84499979019165 57.111000061035156,6.84499979019165 C57.111000061035156,6.84499979019165 26.591999053955078,-39.54600143432617 26.591999053955078,-39.54600143432617z"></path></g><g opacity="1" transform="matrix(1,0,0,1,534.4569702148438,393.73699951171875)">
<path fill="rgb(228,152,125)" fill-opacity="1" d=" M11.640000343322754,10.675999641418457 C11.640000343322754,10.675999641418457 -11.640000343322754,10.675999641418457 -11.640000343322754,10.675999641418457 C-17.003999710083008,10.675999641418457 -21.351999282836914,6.327000141143799 -21.351999282836914,0.9639999866485596 C-21.351999282836914,0.9639999866485596 -21.351999282836914,-0.9639999866485596 -21.351999282836914,-0.9639999866485596 C-21.351999282836914,-6.327000141143799 -17.003999710083008,-10.675999641418457 -11.640000343322754,-10.675999641418457 C-11.640000343322754,-10.675999641418457 11.640000343322754,-10.675999641418457 11.640000343322754,-10.675999641418457 C17.003000259399414,-10.675999641418457 21.351999282836914,-6.327000141143799 21.351999282836914,-0.9639999866485596 C21.351999282836914,-0.9639999866485596 21.351999282836914,0.9639999866485596 21.351999282836914,0.9639999866485596 C21.351999282836914,6.327000141143799 17.003000259399414,10.675999641418457 11.640000343322754,10.675999641418457z"></path></g><g opacity="1" transform="matrix(1,0,0,1,563.9110107421875,393.21600341796875)">
<path stroke-linecap="round" stroke-linejoin="round" fill-opacity="0" stroke="rgb(15,13,19)" stroke-opacity="1" stroke-width="0.98" d=" M-3.263000011444092,-3.815999984741211 C-3.263000011444092,-3.815999984741211 -2.3450000286102295,3.190000057220459 3.26200008392334,3.815999984741211"></path></g><g opacity="1" transform="matrix(1,0,0,1,567.1740112304688,359.7799987792969)">
<path stroke-linecap="round" stroke-linejoin="round" fill-opacity="0" stroke="rgb(15,13,19)" stroke-opacity="1" stroke-width="0.98" d=" M35.159000396728516,-19.06100082397461 C35.159000396728516,-19.06100082397461 -35.159000396728516,19.059999465942383 -35.159000396728516,19.059999465942383"></path></g></g><g transform="matrix(1.3324710130691528,-0.08213438838720322,0.08213438838720322,1.3324710130691528,-30.63606834411621,43.6583251953125)" opacity="1" style="display: block;"><g opacity="1" transform="matrix(1,0,0,1,517.6079711914062,373.4490051269531)">
<path fill="rgb(228,152,125)" fill-opacity="1" d=" M7.828000068664551,12.3100004196167 C7.828000068664551,12.3100004196167 6.745999813079834,12.9350004196167 6.745999813079834,12.9350004196167 C3.746000051498413,14.666999816894531 -0.12600000202655792,13.628999710083008 -1.8580000400543213,10.630000114440918 C-1.8580000400543213,10.630000114440918 -10.135000228881836,-3.7060000896453857 -10.135000228881836,-3.7060000896453857 C-11.866000175476074,-6.705999851226807 -10.829000473022461,-10.57699966430664 -7.828999996185303,-12.309000015258789 C-7.828999996185303,-12.309000015258789 -6.745999813079834,-12.934000015258789 -6.745999813079834,-12.934000015258789 C-3.746000051498413,-14.666000366210938 0.125,-13.628000259399414 1.8569999933242798,-10.628000259399414 C1.8569999933242798,-10.628000259399414 10.133999824523926,3.7060000896453857 10.133999824523926,3.7060000896453857 C11.864999771118164,6.705999851226807 10.82800006866455,10.579000473022461 7.828000068664551,12.3100004196167z"></path></g></g><g transform="matrix(1.3345738649368286,-0.03372880816459656,0.03372880816459656,1.3345738649368286,-14.01230525970459,18.03631591796875)" opacity="1" style="display: block;"><g opacity="1" transform="matrix(1,0,0,1,510.35198974609375,382.2869873046875)">
<path fill="rgb(228,152,125)" fill-opacity="1" d=" M-0.03200000151991844,-21.459999084472656 C-8.255999565124512,-16.072999954223633 -8.42300033569336,3.6110000610351562 -8.59000015258789,11.451000213623047 C-8.756999969482422,19.291000366210938 4.755000114440918,21.459999084472656 6.25600004196167,9.782999992370605 C7.757999897003174,-1.8940000534057617 8.756999969482422,-8.836999893188477 8.756999969482422,-8.836999893188477 C8.756999969482422,-8.836999893188477 -0.03200000151991844,-21.459999084472656 -0.03200000151991844,-21.459999084472656z"></path></g></g><g transform="matrix(1.3345738649368286,-0.03372880816459656,0.03372880816459656,1.3345738649368286,-14.01230525970459,18.03631591796875)" opacity="1" style="display: block;"><g opacity="1" transform="matrix(1,0,0,1,510.35198974609375,382.2869873046875)">
<path stroke-linecap="round" stroke-linejoin="round" fill-opacity="0" stroke="rgb(15,13,19)" stroke-opacity="1" stroke-width="0.98" d=" M-0.03200000151991844,-21.459999084472656 C-8.255999565124512,-16.072999954223633 -8.42300033569336,3.6110000610351562 -8.59000015258789,11.451000213623047 C-8.756999969482422,19.291000366210938 4.755000114440918,21.459999084472656 6.25600004196167,9.782999992370605 C7.757999897003174,-1.8940000534057617 8.756999969482422,-8.836999893188477 8.756999969482422,-8.836999893188477"></path></g></g><g transform="matrix(1.3350000381469727,0,0,1.3350000381469727,-0.6931689381599426,-3.0687549114227295)" opacity="1" style="display: block;"><g opacity="1" transform="matrix(1,0,0,1,526.0330200195312,389.9639892578125)">
<path fill="rgb(228,152,125)" fill-opacity="1" d=" M0.625,14.574000358581543 C0.625,14.574000358581543 -0.625,14.574000358581543 -0.625,14.574000358581543 C-4.089000225067139,14.574000358581543 -6.923999786376953,11.741000175476074 -6.923999786376953,8.277000427246094 C-6.923999786376953,8.277000427246094 -6.923999786376953,-8.277000427246094 -6.923999786376953,-8.277000427246094 C-6.923999786376953,-11.739999771118164 -4.089000225067139,-14.574000358581543 -0.625,-14.574000358581543 C-0.625,-14.574000358581543 0.625,-14.574000358581543 0.625,-14.574000358581543 C4.090000152587891,-14.574000358581543 6.922999858856201,-11.739999771118164 6.922999858856201,-8.277000427246094 C6.922999858856201,-8.277000427246094 6.922999858856201,8.277000427246094 6.922999858856201,8.277000427246094 C6.922999858856201,11.741000175476074 4.090000152587891,14.574000358581543 0.625,14.574000358581543z"></path></g></g><g transform="matrix(1.3350000381469727,0,0,1.3350000381469727,-0.6931689381599426,-3.0687549114227295)" opacity="1" style="display: block;"><g opacity="1" transform="matrix(1,0,0,1,526.0330200195312,389.9639892578125)">
<path stroke-linecap="round" stroke-linejoin="round" fill-opacity="0" stroke="rgb(15,13,19)" stroke-opacity="1" stroke-width="0.98" d=" M5.784999847412109,-11.444000244140625 C6.504000186920166,-10.352999687194824 6.923999786376953,-9.04800033569336 6.923999786376953,-7.6519999504089355 C6.923999786376953,-7.6519999504089355 6.923999786376953,7.6519999504089355 6.923999786376953,7.6519999504089355 C6.923999786376953,11.458999633789062 3.806999921798706,14.574999809265137 0,14.574999809265137 C-3.808000087738037,14.574999809265137 -6.922999858856201,11.458999633789062 -6.922999858856201,7.6519999504089355 C-6.922999858856201,7.6519999504089355 -6.922999858856201,-7.6519999504089355 -6.922999858856201,-7.6519999504089355 C-6.922999858856201,-11.460000038146973 -3.808000087738037,-14.574999809265137 0,-14.574999809265137"></path></g></g><g transform="matrix(1.3350000381469727,0,0,1.3350000381469727,-0.6239092946052551,-0.25053924322128296)" opacity="1" style="display: block;"><g opacity="1" transform="matrix(1,0,0,1,539.8790283203125,389.9639892578125)">
<path fill="rgb(228,152,125)" fill-opacity="1" d=" M0.625,14.574000358581543 C0.625,14.574000358581543 -0.625,14.574000358581543 -0.625,14.574000358581543 C-4.089000225067139,14.574000358581543 -6.922999858856201,11.741000175476074 -6.922999858856201,8.277000427246094 C-6.922999858856201,8.277000427246094 -6.922999858856201,-8.277000427246094 -6.922999858856201,-8.277000427246094 C-6.922999858856201,-11.739999771118164 -4.089000225067139,-14.574000358581543 -0.625,-14.574000358581543 C-0.625,-14.574000358581543 0.625,-14.574000358581543 0.625,-14.574000358581543 C4.089000225067139,-14.574000358581543 6.922999858856201,-11.739999771118164 6.922999858856201,-8.277000427246094 C6.922999858856201,-8.277000427246094 6.922999858856201,8.277000427246094 6.922999858856201,8.277000427246094 C6.922999858856201,11.741000175476074 4.089000225067139,14.574000358581543 0.625,14.574000358581543z"></path></g></g><g transform="matrix(1.3350000381469727,0,0,1.3350000381469727,-0.6239092946052551,-0.25053924322128296)" opacity="1" style="display: block;"><g opacity="1" transform="matrix(1,0,0,1,539.8790283203125,390.4119873046875)">
<path stroke-linecap="round" stroke-linejoin="round" fill-opacity="0" stroke="rgb(15,13,19)" stroke-opacity="1" stroke-width="0.98" d=" M3.575000047683716,-14.02299976348877 C5.578000068664551,-12.805999755859375 6.922999858856201,-10.60200023651123 6.922999858856201,-8.100000381469727 C6.922999858856201,-8.100000381469727 6.922999858856201,7.203000068664551 6.922999858856201,7.203000068664551 C6.922999858856201,11.010000228881836 3.806999921798706,14.125 0,14.125 C-3.808000087738037,14.125 -6.922999858856201,11.010000228881836 -6.922999858856201,7.203000068664551 C-6.922999858856201,7.203000068664551 -6.922999858856201,-8.100000381469727 -6.922999858856201,-8.100000381469727 C-6.922999858856201,-10.67300033569336 -5.5,-12.930999755859375 -3.4019999504089355,-14.125"></path></g></g><g transform="matrix(1.3350000381469727,0,0,1.3350000381469727,-0.6239092946052551,-0.25053924322128296)" opacity="1" style="display: block;"><g opacity="1" transform="matrix(1,0,0,1,553.7249755859375,389.9639892578125)">
<path fill="rgb(228,152,125)" fill-opacity="1" d=" M0.625,14.574000358581543 C0.625,14.574000358581543 -0.6259999871253967,14.574000358581543 -0.6259999871253967,14.574000358581543 C-4.090000152587891,14.574000358581543 -6.923999786376953,11.741000175476074 -6.923999786376953,8.277000427246094 C-6.923999786376953,8.277000427246094 -6.923999786376953,-8.277000427246094 -6.923999786376953,-8.277000427246094 C-6.923999786376953,-11.739999771118164 -4.090000152587891,-14.574000358581543 -0.6259999871253967,-14.574000358581543 C-0.6259999871253967,-14.574000358581543 0.625,-14.574000358581543 0.625,-14.574000358581543 C4.089000225067139,-14.574000358581543 6.922999858856201,-11.739999771118164 6.922999858856201,-8.277000427246094 C6.922999858856201,-8.277000427246094 6.922999858856201,8.277000427246094 6.922999858856201,8.277000427246094 C6.922999858856201,11.741000175476074 4.089000225067139,14.574000358581543 0.625,14.574000358581543z"></path></g></g><g transform="matrix(1.3350000381469727,0,0,1.3350000381469727,-0.6239092946052551,-0.25053924322128296)" opacity="1" style="display: block;"><g opacity="1" transform="matrix(1,0,0,1,556.9869995117188,389.9639892578125)">
<path stroke-linecap="round" stroke-linejoin="round" fill-opacity="0" stroke="rgb(15,13,19)" stroke-opacity="1" stroke-width="0.98" d=" M3.6610000133514404,-4.232999801635742 C3.6610000133514404,-4.232999801635742 3.6610000133514404,7.6519999504089355 3.6610000133514404,7.6519999504089355 C3.6610000133514404,11.458999633789062 0.5460000038146973,14.574999809265137 -3.26200008392334,14.574999809265137 C-7.068999767303467,14.574999809265137 -10.185999870300293,11.458999633789062 -10.185999870300293,7.6519999504089355 C-10.185999870300293,7.6519999504089355 -10.185999870300293,-7.6519999504089355 -10.185999870300293,-7.6519999504089355 C-10.185999870300293,-11.460000038146973 -7.068999767303467,-14.574999809265137 -3.26200008392334,-14.574999809265137 C-3.26200008392334,-14.574999809265137 10.185999870300293,-14.574999809265137 10.185999870300293,-14.574999809265137"></path></g></g><g transform="matrix(1.3350000381469727,0,0,1.3350000381469727,-0.6251315474510193,-0.24919478595256805)" opacity="1" style="display: block;"><g opacity="1" transform="matrix(1,0,0,1,617.0120239257812,351.5920104980469)">
<path fill="rgb(228,152,125)" fill-opacity="1" d=" M-7.323999881744385,-58.50600051879883 C-7.323999881744385,-58.50600051879883 9.23900032043457,-30.368000030517578 24.95199966430664,-8.980999946594238 C51.97600173950195,27.799999237060547 0.7120000123977661,58.50600051879883 -27.076000213623047,16.541000366210938 C-49.111000061035156,-16.73699951171875 -51.974998474121094,-21.240999221801758 -51.974998474121094,-21.240999221801758 C-51.974998474121094,-21.240999221801758 -7.323999881744385,-58.50600051879883 -7.323999881744385,-58.50600051879883z"></path></g><g opacity="1" transform="matrix(1,0,0,1,598.7579956054688,317.4010009765625)">
<path fill="rgb(218,120,93)" fill-opacity="1" d=" M30.85700035095215,7.427999973297119 C30.85700035095215,7.427999973297119 -30.85700035095215,17.452999114990234 -30.85700035095215,17.452999114990234 C-30.85700035095215,17.452999114990234 -28.104000091552734,-2.316999912261963 15.057000160217285,-17.452999114990234 C15.057000160217285,-17.452999114990234 30.85700035095215,7.427999973297119 30.85700035095215,7.427999973297119z"></path></g></g><g transform="matrix(1.3350000381469727,0,0,1.3350000381469727,-0.43829345703125,-0.413421630859375)" opacity="1" style="display: block;"><g opacity="1" transform="matrix(1,0,0,1,587.22998046875,292.19000244140625)">
<path fill="rgb(250,188,4)" fill-opacity="1" d=" M-26.708999633789062,-40.77000045776367 C-1.0880000591278076,-42.665000915527344 4.065999984741211,-17.88599967956543 27.336000442504883,-3.249000072479248 C27.336000442504883,-3.249000072479248 50.60499954223633,11.387999534606934 50.60499954223633,11.387999534606934 C50.60499954223633,11.387999534606934 18.202999114990234,14.140000343322754 -2.313999891281128,27.150999069213867 C-20.468000411987305,38.66400146484375 -19.32900047302246,42.665000915527344 -19.32900047302246,42.665000915527344 C-19.32900047302246,42.665000915527344 -38.595001220703125,12.888999938964844 -44.599998474121094,-1.8739999532699585 C-50.60499954223633,-16.635000228881836 -48.85300064086914,-39.132999420166016 -26.708999633789062,-40.77000045776367z"></path></g></g><g transform="matrix(1.3350000381469727,0,0,1.3350000381469727,-0.62518310546875,-0.24920654296875)" opacity="1" style="display: block;"><g opacity="1" transform="matrix(1,0,0,1,560.2630004882812,259.4100036621094)">
<path stroke-linecap="round" stroke-linejoin="round" fill-opacity="0" stroke="rgb(239,245,255)" stroke-opacity="1" stroke-width="0.98" d=" M-35.3129997253418,0.7870000004768372 C-10.62600040435791,-7.888000011444092 4.6579999923706055,-12.807999610900879 16.614999771118164,-4.927000045776367 C22.323999404907227,-1.1640000343322754 28.750999450683594,5.880000114440918 35.3129997253418,12.807999610900879"></path></g></g><g transform="matrix(1.3350000381469727,0,0,1.3350000381469727,-0.43829345703125,-0.413421630859375)" opacity="1" style="display: block;"><g opacity="1" transform="matrix(1,0,0,1,562.4130249023438,325.5710144042969)">
<path stroke-linecap="round" stroke-linejoin="round" fill-opacity="0" stroke="rgb(15,13,19)" stroke-opacity="1" stroke-width="0.98" d=" M17.447999954223633,27.329999923706055 C17.447999954223633,27.329999923706055 -17.447999954223633,-27.33099937438965 -17.447999954223633,-27.33099937438965"></path></g><g opacity="1" transform="matrix(1,0,0,1,582.9299926757812,346.8110046386719)">
<path stroke-linecap="round" stroke-linejoin="round" fill-opacity="0" stroke="rgb(15,13,19)" stroke-opacity="1" stroke-width="0.98" d=" M3.069999933242798,-6.091000080108643 C3.069999933242798,-6.091000080108643 -3.069999933242798,6.091000080108643 -3.069999933242798,6.091000080108643"></path></g></g><g style="display: none;" mask="url(#__lottie_element_2041_2)"><g transform="matrix(0.6427876353263855,0.7660444378852844,-0.7660444378852844,0.6427876353263855,467.40673828125,-123.8963623046875)" opacity="1"><g opacity="1" transform="matrix(1.3350000381469727,0,0,1.3350000381469727,-0.625,-0.25)"><g opacity="1" transform="matrix(1,0,0,1,399.760009765625,280.218994140625)">
<path fill="rgb(228,152,125)" fill-opacity="1" d=" M-11.545999526977539,-76.31999969482422 C-17.80699920654297,-55.79199981689453 -56.172000885009766,62.808998107910156 -56.172000885009766,62.808998107910156 C-56.172000885009766,62.808998107910156 -11.545999526977539,76.31999969482422 -11.545999526977539,76.31999969482422 C-11.545999526977539,76.31999969482422 25.89699935913086,-28.934999465942383 25.89699935913086,-28.934999465942383 C25.89699935913086,-28.934999465942383 40.816001892089844,-32.14699935913086 46.41400146484375,-33.35599899291992 C53.75400161743164,-34.941001892089844 56.17300033569336,-48.87099838256836 42.327999114990234,-46.61800003051758 C42.327999114990234,-46.61800003051758 28.48200035095215,-44.3650016784668 28.48200035095215,-44.3650016784668 C28.48200035095215,-44.3650016784668 33.98699951171875,-66.38300323486328 33.98699951171875,-66.38300323486328 C33.98699951171875,-66.38300323486328 -11.545999526977539,-76.31999969482422 -11.545999526977539,-76.31999969482422z"></path></g></g><g opacity="1" transform="matrix(1.3350000381469727,0,0,1.3350000381469727,-0.625,-0.25)"><g opacity="1" transform="matrix(1,0,0,1,377.97198486328125,315.55999755859375)">
<path fill="rgb(218,120,93)" fill-opacity="1" d=" M-16.542999267578125,-27.802000045776367 C-16.542999267578125,-27.802000045776367 26.844999313354492,-5.692999839782715 26.844999313354492,-5.692999839782715 C26.844999313354492,-5.692999839782715 17.496000289916992,27.802000045776367 17.496000289916992,27.802000045776367 C17.496000289916992,27.802000045776367 -26.844999313354492,4.135000228881836 -26.844999313354492,4.135000228881836 C-26.844999313354492,4.135000228881836 -16.542999267578125,-27.802000045776367 -16.542999267578125,-27.802000045776367z"></path></g></g></g></g><g style="display: none;" transform="matrix(0.8581215143203735,1.0226693153381348,-1.0226693153381348,0.8581215143203735,467.1965026855469,-124.53583526611328)" opacity="1"><g opacity="1" transform="matrix(1,0,0,1,445.48699951171875,204.74400329589844)">
<path fill="rgb(228,152,125)" fill-opacity="1" d=" M7.317999839782715,-13.88700008392334 C15.574999809265137,-19.642000198364258 23.457000732421875,-10.168000221252441 14.699999809265137,-3.5199999809265137 C5.941999912261963,3.128000020980835 -15.326000213623047,19.641000747680664 -15.326000213623047,19.641000747680664 C-15.326000213623047,19.641000747680664 -23.457000732421875,7.50600004196167 -23.457000732421875,7.50600004196167 C-23.457000732421875,7.50600004196167 0.628000020980835,-9.222999572753906 7.317999839782715,-13.88700008392334z"></path></g></g><g style="display: none;" transform="matrix(0.8581214547157288,-1.0226694345474243,1.0226694345474243,0.8581214547157288,31.177255630493164,754.6150512695312)" opacity="1"><g opacity="1" transform="matrix(1,0,0,1,435.2820129394531,222.6179962158203)">
<path fill="rgb(228,152,125)" fill-opacity="1" d=" M-11.67300033569336,-5.890999794006348 C-11.67300033569336,-5.890999794006348 -6.881999969482422,1.5880000591278076 -3.6500000953674316,8.28499984741211 C-0.4169999957084656,14.982999801635742 11.67300033569336,9.812000274658203 7.065999984741211,-2.1019999980926514 C3.9730000495910645,-10.105999946594238 -0.9110000133514404,-14.982000350952148 -0.9110000133514404,-14.982000350952148 C-0.9110000133514404,-14.982000350952148 -11.67300033569336,-5.890999794006348 -11.67300033569336,-5.890999794006348z"></path></g></g><g style="display: none;" transform="matrix(0.8581214547157288,-1.0226694345474243,1.0226694345474243,0.8581214547157288,31.177255630493164,754.6150512695312)" opacity="1"><g opacity="1" transform="matrix(1,0,0,1,429.83099365234375,213.17799377441406)">
<path fill="rgb(228,152,125)" fill-opacity="1" d=" M6.2220001220703125,-3.5510001182556152 C8.182999610900879,-0.11500000208616257 6.986999988555908,4.260000228881836 3.5510001182556152,6.2210001945495605 C0.11500000208616257,8.182000160217285 -4.260000228881836,6.986999988555908 -6.2210001945495605,3.5510001182556152 C-8.182000160217285,0.11500000208616257 -6.986000061035156,-4.261000156402588 -3.549999952316284,-6.2210001945495605 C-0.11400000005960464,-8.182000160217285 4.261000156402588,-6.98799991607666 6.2220001220703125,-3.5510001182556152z"></path></g></g><g style="display: none;" transform="matrix(0.8581214547157288,-1.0226694345474243,1.0226694345474243,0.8581214547157288,31.177255630493164,754.6150512695312)" opacity="1"><g opacity="1" transform="matrix(1,0,0,1,435.2820129394531,221.41299438476562)">
<path stroke-linecap="round" stroke-linejoin="round" fill-opacity="0" stroke="rgb(15,13,19)" stroke-opacity="1" stroke-width="0.98" d=" M-11.67300033569336,-4.684999942779541 C-11.67300033569336,-4.684999942779541 -6.881999969482422,2.7929999828338623 -3.6500000953674316,9.489999771118164 C-0.4169999957084656,16.187999725341797 11.67300033569336,11.017999649047852 7.065999984741211,-0.8960000276565552 C3.9730000495910645,-8.899999618530273 -0.9110000133514404,-13.777000427246094 -0.9110000133514404,-13.777000427246094 C-3.140000104904175,-16.187999725341797 -8.105999946594238,-15.918000221252441 -10.085000038146973,-13.696999549865723"></path></g></g><g style="display: none;" transform="matrix(1.3350000381469727,0,0,1.3350000381469727,59.57841110229492,195.0062255859375)" opacity="1"><g opacity="1" transform="matrix(1,0,0,1,420.0480041503906,222.1699981689453)">
<path fill="rgb(228,152,125)" fill-opacity="1" d=" M-7.38700008392334,-11.074000358581543 C-7.38700008392334,-11.074000358581543 -6.943999767303467,-2.3989999294281006 -7.443999767303467,4.85699987411499 C-7.945000171661377,12.11299991607666 4.831999778747559,13.579999923706055 6.693999767303467,1.2280000448226929 C7.945000171661377,-7.071000099182129 6.159999847412109,-13.581000328063965 6.159999847412109,-13.581000328063965 C6.159999847412109,-13.581000328063965 -7.38700008392334,-11.074000358581543 -7.38700008392334,-11.074000358581543z"></path></g></g><g style="display: none;" transform="matrix(1.3350000381469727,0,0,1.3350000381469727,59.57841110229492,195.0062255859375)" opacity="1"><g opacity="1" transform="matrix(1,0,0,1,409.3179931640625,207.71600341796875)">
<path fill="rgb(228,152,125)" fill-opacity="1" d=" M3.382999897003174,-6.328999996185303 C7.175000190734863,-4.423999786376953 8.734000205993652,-0.04500000178813934 6.864999771118164,3.450000047683716 C4.997000217437744,6.945000171661377 0.40799999237060547,8.232999801635742 -3.384000062942505,6.327000141143799 C-7.176000118255615,4.421999931335449 -8.734000205993652,0.04500000178813934 -6.866000175476074,-3.450000047683716 C-4.998000144958496,-6.945000171661377 -0.40799999237060547,-8.234000205993652 3.382999897003174,-6.328999996185303z"></path></g></g><g style="display: none;" transform="matrix(1.3350000381469727,0,0,1.3350000381469727,59.57841110229492,195.0062255859375)" opacity="1"><g opacity="1" transform="matrix(1,0,0,1,414.3420104980469,209.27499389648438)">
<path fill="rgb(228,152,125)" fill-opacity="1" d=" M2.9040000438690186,8.395999908447266 C2.9040000438690186,8.395999908447266 -7.144999980926514,5.2779998779296875 -7.144999980926514,5.2779998779296875 C-7.144999980926514,5.2779998779296875 -2.9030001163482666,-8.395999908447266 -2.9030001163482666,-8.395999908447266 C-2.9030001163482666,-8.395999908447266 7.145999908447266,-5.2779998779296875 7.145999908447266,-5.2779998779296875 C7.145999908447266,-5.2779998779296875 2.9040000438690186,8.395999908447266 2.9040000438690186,8.395999908447266z"></path></g></g><g style="display: none;" transform="matrix(1.3350000381469727,0,0,1.3350000381469727,59.57841110229492,195.0062255859375)" opacity="1"><g opacity="1" transform="matrix(1,0,0,1,419.6659851074219,211.0970001220703)">
<path fill="rgb(228,152,125)" fill-opacity="1" d=" M7.00600004196167,0 C7.00600004196167,3.86899995803833 3.86899995803833,7.00600004196167 0,7.00600004196167 C-3.86899995803833,7.00600004196167 -7.00600004196167,3.86899995803833 -7.00600004196167,0 C-7.00600004196167,-3.86899995803833 -3.86899995803833,-7.00600004196167 0,-7.00600004196167 C3.86899995803833,-7.00600004196167 7.00600004196167,-3.86899995803833 7.00600004196167,0z"></path></g></g><g style="display: none;" transform="matrix(1.3350000381469727,0,0,1.3350000381469727,59.57841110229492,195.0062255859375)" opacity="1"><g opacity="1" transform="matrix(1,0,0,1,419.6709899902344,219.22500610351562)">
<path stroke-linecap="round" stroke-linejoin="round" fill-opacity="0" stroke="rgb(15,13,19)" stroke-opacity="1" stroke-width="0.98" d=" M4.366000175476074,-13.60099983215332 C7.236999988555908,-9.97599983215332 7.942999839782715,-3.6619999408721924 7.215000152587891,3.1059999465942383 C6.486000061035156,9.875 3.566999912261963,13.60099983215332 -2.0209999084472656,13.36400032043457 C-7.609000205993652,13.126999855041504 -7.942999839782715,6.5370001792907715 -7.942999839782715,6.5370001792907715"></path></g></g><g style="display: none;" transform="matrix(1.3350000381469727,0,0,1.3350000381469727,66.35774230957031,180.92233276367188)" opacity="1"><g opacity="1" transform="matrix(1,0,0,1,407.2040100097656,222.40699768066406)">
<path fill="rgb(228,152,125)" fill-opacity="1" d=" M-7.388000011444092,-11.074000358581543 C-7.388000011444092,-11.074000358581543 -6.942999839782715,-2.3989999294281006 -7.443999767303467,4.85699987411499 C-7.943999767303467,12.11400032043457 4.831999778747559,13.579999923706055 6.693999767303467,1.2280000448226929 C7.945000171661377,-7.071000099182129 6.160999774932861,-13.581000328063965 6.160999774932861,-13.581000328063965 C6.160999774932861,-13.581000328063965 -7.388000011444092,-11.074000358581543 -7.388000011444092,-11.074000358581543z"></path></g></g><g style="display: none;" transform="matrix(1.3350000381469727,0,0,1.3350000381469727,66.35774230957031,180.92233276367188)" opacity="1"><g opacity="1" transform="matrix(1,0,0,1,395.46600341796875,207.54400634765625)">
<path fill="rgb(228,152,125)" fill-opacity="1" d=" M3.575000047683716,-6.685999870300293 C7.580999851226807,-4.672999858856201 9.22700023651123,-0.04699999839067459 7.254000186920166,3.6459999084472656 C5.28000020980835,7.3379998207092285 0.4320000112056732,8.697999954223633 -3.572999954223633,6.684999942779541 C-7.578999996185303,4.671999931335449 -9.22700023651123,0.04699999839067459 -7.252999782562256,-3.6449999809265137 C-5.28000020980835,-7.336999893188477 -0.4309999942779541,-8.699000358581543 3.575000047683716,-6.685999870300293z"></path></g></g><g style="display: none;" transform="matrix(1.3350000381469727,0,0,1.3350000381469727,66.35774230957031,180.92233276367188)" opacity="1"><g opacity="1" transform="matrix(1,0,0,1,400.7749938964844,209.1929931640625)">
<path fill="rgb(228,152,125)" fill-opacity="1" d=" M3.066999912261963,8.869999885559082 C3.066999912261963,8.869999885559082 -7.548999786376953,5.576000213623047 -7.548999786376953,5.576000213623047 C-7.548999786376953,5.576000213623047 -3.066999912261963,-8.869999885559082 -3.066999912261963,-8.869999885559082 C-3.066999912261963,-8.869999885559082 7.548999786376953,-5.576000213623047 7.548999786376953,-5.576000213623047 C7.548999786376953,-5.576000213623047 3.066999912261963,8.869999885559082 3.066999912261963,8.869999885559082z"></path></g></g><g style="display: none;" transform="matrix(1.3350000381469727,0,0,1.3350000381469727,66.35774230957031,180.92233276367188)" opacity="1"><g opacity="1" transform="matrix(1,0,0,1,406.8210144042969,211.33399963378906)">
<path fill="rgb(228,152,125)" fill-opacity="1" d=" M7.00600004196167,0 C7.00600004196167,3.869999885559082 3.86899995803833,7.00600004196167 0,7.00600004196167 C-3.86899995803833,7.00600004196167 -7.00600004196167,3.869999885559082 -7.00600004196167,0 C-7.00600004196167,-3.86899995803833 -3.86899995803833,-7.00600004196167 0,-7.00600004196167 C3.86899995803833,-7.00600004196167 7.00600004196167,-3.86899995803833 7.00600004196167,0z"></path></g></g><g style="display: none;" transform="matrix(1.3350000381469727,0,0,1.3350000381469727,66.35774230957031,180.92233276367188)" opacity="1"><g opacity="1" transform="matrix(1,0,0,1,407.40301513671875,217.16299438476562)">
<path stroke-linecap="round" stroke-linejoin="round" fill-opacity="0" stroke="rgb(15,13,19)" stroke-opacity="1" stroke-width="0.98" d=" M-6.629000186920166,-15.939000129699707 C-6.629000186920166,-15.939000129699707 -0.4860000014305115,-13.789999961853027 3.753999948501587,-11.852999687194824 C7.994999885559082,-9.916000366210938 6.938000202178955,1.3839999437332153 6.591000080108643,5.783999919891357 C6.243000030517578,10.184000015258789 3.2219998836517334,15.357000350952148 -1.690000057220459,15.64799976348877 C-6.60099983215332,15.939000129699707 -7.994999885559082,13.166000366210938 -7.468999862670898,6.507999897003174 C-6.941999912261963,-0.15000000596046448 -7.5879998207092285,-5.829999923706055 -7.5879998207092285,-5.829999923706055"></path></g></g><g style="display: none;" transform="matrix(1.3350000381469727,0,0,1.3350000381469727,66.35774230957031,180.92233276367188)" opacity="1"><g opacity="1" transform="matrix(1,0,0,1,396.6180114746094,215.82400512695312)">
<path stroke-linecap="round" stroke-linejoin="round" fill-opacity="0" stroke="rgb(15,13,19)" stroke-opacity="1" stroke-width="0.98" d=" M-3.3919999599456787,-1.055999994277954 C-3.3919999599456787,-1.055999994277954 3.3919999599456787,1.055999994277954 3.3919999599456787,1.055999994277954"></path></g></g><g style="display: none;" transform="matrix(0.8581215143203735,1.0226693153381348,-1.0226693153381348,0.8581215143203735,467.1965026855469,-124.53583526611328)" opacity="1"><g opacity="1" transform="matrix(1,0,0,1,409.37799072265625,242.8179931640625)">
<path stroke-linecap="round" stroke-linejoin="round" fill-opacity="0" stroke="rgb(15,13,19)" stroke-opacity="1" stroke-width="0.98" d=" M-4.988999843597412,4.795000076293945 C-4.988999843597412,4.795000076293945 -3.1710000038146973,-2.6679999828338623 4.989999771118164,-4.795000076293945"></path></g></g><g style="display: none;" transform="matrix(0.8581215143203735,1.0226693153381348,-1.0226693153381348,0.8581215143203735,467.1965026855469,-124.53583526611328)" opacity="1"><g opacity="1" transform="matrix(1,0,0,1,432.8320007324219,249.57400512695312)">
<path stroke-linecap="round" stroke-linejoin="round" fill-opacity="0" stroke="rgb(15,13,19)" stroke-opacity="1" stroke-width="0.98" d=" M-12.180000305175781,2.4600000381469727 C-12.180000305175781,2.4600000381469727 12.180000305175781,-2.4600000381469727 12.180000305175781,-2.4600000381469727"></path></g></g><g transform="matrix(1.3350000381469727,0,0,1.3350000381469727,-0.625,-0.25)" opacity="1" style="display: block;"><g opacity="1" transform="matrix(1,0,0,1,415.7650146484375,369.50799560546875)">
<path fill="rgb(239,245,255)" fill-opacity="1" d=" M-95.1729965209961,-51.66899871826172 C-95.1729965209961,-51.66899871826172 55.6150016784668,-51.66899871826172 55.6150016784668,-51.66899871826172 C57.779998779296875,-51.66899871826172 59.736000061035156,-50.375999450683594 60.58700180053711,-48.3849983215332 C60.58700180053711,-48.3849983215332 100.125,44.137001037597656 100.125,44.137001037597656 C101.6500015258789,47.70399856567383 99.03399658203125,51.667999267578125 95.15399932861328,51.667999267578125 C95.15399932861328,51.667999267578125 -56.56399917602539,51.667999267578125 -56.56399917602539,51.667999267578125 C-58.744998931884766,51.667999267578125 -60.7140007019043,50.356998443603516 -61.55400085449219,48.34400177001953 C-61.55400085449219,48.34400177001953 -100.16300201416016,-44.178001403808594 -100.16300201416016,-44.178001403808594 C-101.6500015258789,-47.7400016784668 -99.03299713134766,-51.66899871826172 -95.1729965209961,-51.66899871826172z"></path></g><g opacity="1" transform="matrix(1,0,0,1,558.8309936523438,412.85699462890625)">
<path fill="rgb(239,245,255)" fill-opacity="1" d=" M54.98400115966797,8.319999694824219 C54.98400115966797,8.319999694824219 -54.98400115966797,8.319999694824219 -54.98400115966797,8.319999694824219 C-54.98400115966797,8.319999694824219 -54.98400115966797,-8.319000244140625 -54.98400115966797,-8.319000244140625 C-54.98400115966797,-8.319000244140625 54.98400115966797,-8.319000244140625 54.98400115966797,-8.319000244140625 C54.98400115966797,-8.319000244140625 54.98400115966797,8.319999694824219 54.98400115966797,8.319999694824219z"></path></g><g opacity="1" transform="matrix(1,0,0,1,433.8810119628906,412.8580017089844)">
<path fill="rgb(148,185,233)" fill-opacity="1" d=" M78.11799621582031,-8.319999694824219 C78.11799621582031,-8.319999694824219 -85.22699737548828,-8.319999694824219 -85.22699737548828,-8.319999694824219 C-85.22699737548828,-8.319999694824219 -78.28299713134766,8.319000244140625 -78.28299713134766,8.319000244140625 C-78.28299713134766,8.319000244140625 85.22699737548828,8.319000244140625 85.22699737548828,8.319000244140625 C85.22699737548828,8.319000244140625 78.11799621582031,-8.319999694824219 78.11799621582031,-8.319999694824219z"></path></g><g opacity="1" transform="matrix(1,0,0,1,408.1919860839844,362.9909973144531)">
<path fill="rgb(65,133,244)" fill-opacity="1" d=" M10.616999626159668,0 C12.26200008392334,5.86299991607666 8.84000015258789,10.616999626159668 2.9749999046325684,10.616999626159668 C-2.888000011444092,10.616999626159668 -8.972999572753906,5.86299991607666 -10.616999626159668,0 C-12.26099967956543,-5.863999843597412 -8.842000007629395,-10.618000030517578 -2.9779999256134033,-10.618000030517578 C2.885999917984009,-10.618000030517578 8.972999572753906,-5.863999843597412 10.616999626159668,0z"></path></g></g></g></g></svg>