<svg 
xmlns="http://www.w3.org/2000/svg" xmlns:xlink="http://www.w3.org/1999/xlink" viewBox="0 0 1200 1200" width="1200" height="1200" preserveAspectRatio="xMidYMid meet" style="width: 100%; height: 100%; transform: translate3d(0px, 0px, 0px); content-visibility: visible;">
<defs><clipPath id="__lottie_element_2546"><rect width="1200" height="1200" x="0" y="0"></rect></clipPath><clipPath id="__lottie_element_2548"><path d="M0,0 L1099,0 L1099,949 L0,949z"></path></clipPath><clipPath id="__lottie_element_2552"><path d="M0,0 L241,0 L241,311 L0,311z"></path></clipPath><clipPath id="__lottie_element_2556"><path d="M0,0 L765,0 L765,959 L0,959z"></path></clipPath></defs>
<g clip-path="url(#__lottie_element_2546)"><g clip-path="url(#__lottie_element_2548)" transform="matrix(1,0,0,1,54,126)" opacity="1" style="display: block;"><g transform="matrix(1,0,0,1,-159.4940185546875,-50.6259765625)" opacity="1" style="display: block;"><g opacity="1" transform="matrix(1,0,0,1,406.9930114746094,893.4990234375)"><path fill="rgb(193,222,253)" fill-opacity="1" d=" M-170.9929962158203,-83.6780014038086 C-91.13400268554688,-132.18499755859375 106.93699645996094,-142.44000244140625 204.21800231933594,-0.0010000000474974513 C301.4989929199219,142.44000244140625 -406.7430114746094,59.52000045776367 -170.9929962158203,-83.6780014038086z"></path></g><g opacity="1" transform="matrix(1,0,0,1,705.4940185546875,500.1210021972656)"><path fill="rgb(193,222,253)" fill-opacity="1" d=" M-335.1549987792969,204.45700073242188 C-54.2400016784668,226.78900146484375 -64.30500030517578,497.65301513671875 190.00799560546875,498.5480041503906 C565.1849975585938,499.8710021972656 613.6389770507812,36.4640007019043 467.0119934082031,-195.29299926757812 C312.8429870605469,-438.9729919433594 10.01200008392334,-499.8710021972656 -250.2949981689453,-407.7720031738281 C-617.9669799804688,-277.66900634765625 -636.2369995117188,180.52000427246094 -335.1549987792969,204.45700073242188z"></path></g>
<g opacity="1" transform="matrix(1,0,0,1,604.6309814453125,333.0260009765625)">
<path fill="rgb(48,32,19)" fill-opacity="1" d=" M103.88600158691406,262.3590087890625 C103.88600158691406,262.3590087890625 -103.88400268554688,262.3590087890625 -103.88400268554688,262.3590087890625 C-115.66200256347656,262.3590087890625 -125.24800109863281,252.7729949951172 -125.24800109863281,240.99600219726562 C-125.24800109863281,240.99600219726562 -125.24800109863281,-137.11099243164062 -125.24800109863281,-137.11099243164062 C-125.24800109863281,-206.17300415039062 -69.05999755859375,-262.3590087890625 0.0020000000949949026,-262.3590087890625 C69.06500244140625,-262.3590087890625 125.24800109863281,-206.17300415039062 125.24800109863281,-137.11099243164062 C125.24800109863281,-137.11099243164062 125.24800109863281,240.99600219726562 125.24800109863281,240.99600219726562 C125.24800109863281,252.7729949951172 115.66400146484375,262.3590087890625 103.88600158691406,262.3590087890625z M0.0020000000949949026,-259.6919860839844 C-67.58799743652344,-259.6919860839844 -122.5790023803711,-204.7010040283203 -122.5790023803711,-137.11099243164062 C-122.5790023803711,-137.11099243164062 -122.5790023803711,240.99600219726562 -122.5790023803711,240.99600219726562 C-122.5790023803711,251.30299377441406 -114.19200134277344,259.6889953613281 -103.88400268554688,259.6889953613281 C-103.88400268554688,259.6889953613281 103.88600158691406,259.6889953613281 103.88600158691406,259.6889953613281 C114.19400024414062,259.6889953613281 122.58100128173828,251.30299377441406 122.58100128173828,240.99600219726562 C122.58100128173828,240.99600219726562 122.58100128173828,-137.11099243164062 122.58100128173828,-137.11099243164062 C122.58100128173828,-204.7010040283203 67.59200286865234,-259.6919860839844 0.0020000000949949026,-259.6919860839844z"></path></g>
<g opacity="1" transform="matrix(1,0,0,1,604.6320190429688,333.1080017089844)"><path fill="rgb(48,32,19)" fill-opacity="1" d=" M1.3329999446868896,260.0469970703125 C1.3329999446868896,260.0469970703125 -1.3329999446868896,260.0469970703125 -1.3329999446868896,260.0469970703125 C-1.3329999446868896,260.0469970703125 -1.3329999446868896,-260.0469970703125 -1.3329999446868896,-260.0469970703125 C-1.3329999446868896,-260.0469970703125 1.3329999446868896,-260.0469970703125 1.3329999446868896,-260.0469970703125 C1.3329999446868896,-260.0469970703125 1.3329999446868896,260.0469970703125 1.3329999446868896,260.0469970703125z"></path></g><g opacity="1" transform="matrix(1,0,0,1,604.6309814453125,193.10299682617188)">

<path fill="rgb(48,32,19)" fill-opacity="1" d=" M123.26200103759766,1.3350000381469727 C123.26200103759766,1.3350000381469727 -123.26300048828125,1.3350000381469727 -123.26300048828125,1.3350000381469727 C-123.26300048828125,1.3350000381469727 -123.26300048828125,-1.3350000381469727 -123.26300048828125,-1.3350000381469727 C-123.26300048828125,-1.3350000381469727 123.26200103759766,-1.3350000381469727 123.26200103759766,-1.3350000381469727 C123.26200103759766,-1.3350000381469727 123.26200103759766,1.3350000381469727 123.26200103759766,1.3350000381469727z"></path></g><g opacity="1" transform="matrix(1,0,0,1,604.6309814453125,331.5369873046875)">
<path fill="rgb(48,32,19)" fill-opacity="1" d=" M123.26200103759766,1.3339999914169312 C123.26200103759766,1.3339999914169312 -123.26300048828125,1.3339999914169312 -123.26300048828125,1.3339999914169312 C-123.26300048828125,1.3339999914169312 -123.26300048828125,-1.3339999914169312 -123.26300048828125,-1.3339999914169312 C-123.26300048828125,-1.3339999914169312 123.26200103759766,-1.3339999914169312 123.26200103759766,-1.3339999914169312 C123.26200103759766,-1.3339999914169312 123.26200103759766,1.3339999914169312 123.26200103759766,1.3339999914169312z"></path></g><g opacity="1" transform="matrix(1,0,0,1,604.6309814453125,469.9739990234375)">
<path fill="rgb(48,32,19)" fill-opacity="1" d=" M123.26200103759766,1.3329999446868896 C123.26200103759766,1.3329999446868896 -123.26300048828125,1.3329999446868896 -123.26300048828125,1.3329999446868896 C-123.26300048828125,1.3329999446868896 -123.26300048828125,-1.3329999446868896 -123.26300048828125,-1.3329999446868896 C-123.26300048828125,-1.3329999446868896 123.26200103759766,-1.3329999446868896 123.26200103759766,-1.3329999446868896 C123.26200103759766,-1.3329999446868896 123.26200103759766,1.3329999446868896 123.26200103759766,1.3329999446868896z"></path></g><g opacity="1" transform="matrix(1,0,0,1,483.0350036621094,738.8090209960938)">
<path fill="rgb(255,131,118)" fill-opacity="1" d=" M-117.1259994506836,-199.89300537109375 C-76.51499938964844,-260.12200927734375 -31.385000228881836,-229.03500366210938 -19.88599967956543,-211.9219970703125 C84.74700164794922,-56.23099899291992 241.7010040283203,-25.013999938964844 257.2229919433594,72.11000061035156 C265.62200927734375,124.65299987792969 229.52699279785156,256.28399658203125 13.048999786376953,258.1619873046875 C-212.87100219726562,260.1210021972656 -265.62200927734375,99.3270034790039 -214.0030059814453,-3.434000015258789 C-162.43899536132812,-106.08599853515625 -157.7729949951172,-139.61199951171875 -117.1259994506836,-199.89300537109375z"></path></g><g opacity="1" transform="matrix(1,0,0,1,512.4719848632812,693.7650146484375)">
<path fill="rgb(204,88,77)" fill-opacity="1" d=" M-127.2699966430664,-43.07400131225586 C-117.40399932861328,-137.09500122070312 -67.91000366210938,-125.10399627685547 3.0230000019073486,-59.814998626708984 C73.8499984741211,5.375999927520752 95.18900299072266,37.459999084472656 141.76499938964844,39.970001220703125 C188.29800415039062,42.47700119018555 188.78399658203125,75.38800048828125 180.3800048828125,83.72000122070312 C134.0850067138672,129.62100219726562 8.192000389099121,137.093994140625 -73.68499755859375,121.37200164794922 C-116.0479965209961,113.23899841308594 -156.60299682617188,54.757999420166016 -188.78399658203125,58.845001220703125 C-188.78399658203125,58.845001220703125 -135.25599670410156,33.02899932861328 -127.2699966430664,-43.07400131225586z"></path></g><g opacity="1" transform="matrix(1,0,0,1,460.4679870605469,754.4340209960938)">
<path fill="rgb(48,32,19)" fill-opacity="1" d=" M12.991000175476074,237.83200073242188 C12.991000175476074,237.83200073242188 12.991000175476074,235.39999389648438 12.991000175476074,235.39999389648438 C49.15700149536133,235.39999389648438 74.3030014038086,205.5030059814453 85.7770004272461,177.5260009765625 C100.44400024414062,141.75999450683594 96.6259994506836,105.53900146484375 76.0479965209961,85.2490005493164 C58.4370002746582,67.88200378417969 35.7859992980957,65.01599884033203 13.883999824523926,62.244998931884766 C-19.509000778198242,58.02000045776367 -54.0359992980957,53.6510009765625 -72.63999938964844,-0.6769999861717224 C-103.06999969482422,-89.54000091552734 -54.750999450683594,-236.36000061035156 -54.25899887084961,-237.83200073242188 C-54.25899887084961,-237.83200073242188 -51.95100021362305,-237.06300354003906 -51.95100021362305,-237.06300354003906 C-52.441001892089844,-235.59800720214844 -100.50299835205078,-89.5469970703125 -70.34200286865234,-1.465000033378601 C-52.22700119018555,51.42900085449219 -19.966999053955078,55.51100158691406 14.1899995803833,59.832000732421875 C36.49399948120117,62.654998779296875 59.55699920654297,65.5739974975586 77.75299835205078,83.51599884033203 C99.03800201416016,104.50399780273438 103.06999969482422,141.76699829101562 88.02799987792969,178.447998046875 C76.25199890136719,207.15499877929688 50.35900115966797,237.83200073242188 12.991000175476074,237.83200073242188z"></path></g><g opacity="1" transform="matrix(1,0,0,1,568.9550170898438,737.7520141601562)">
<path fill="rgb(48,32,19)" fill-opacity="1" d=" M85.66400146484375,218.14300537109375 C85.66400146484375,218.14300537109375 84.83300018310547,215.85899353027344 84.83300018310547,215.85899353027344 C119.80699920654297,203.14100646972656 134.97300720214844,156.7899932861328 134.26499938964844,119.10700225830078 C133.65499877929688,86.58599853515625 121.51899719238281,48.143001556396484 89.29199981689453,37.7760009765625 C66.64600372314453,30.493999481201172 50.112998962402344,30.2450008392334 34.12300109863281,30.00200080871582 C5.811999797821045,29.575000762939453 -18.63800048828125,29.204999923706055 -65.22599792480469,-12.37399959564209 C-136.7949981689453,-76.24800109863281 -137.42100524902344,-216.72999572753906 -137.41900634765625,-218.14300537109375 C-137.41900634765625,-218.14300537109375 -134.98699951171875,-218.13800048828125 -134.98699951171875,-218.13800048828125 C-134.99000549316406,-216.73699951171875 -134.35699462890625,-77.33100128173828 -63.606998443603516,-14.187000274658203 C-17.695999145507812,26.78700065612793 6.334000110626221,27.149999618530273 34.159000396728516,27.570999145507812 C49.57400131225586,27.80299949645996 67.0479965209961,28.066999435424805 90.03800201416016,35.4630012512207 C123.48200225830078,46.220001220703125 136.07000732421875,85.70099639892578 136.69700622558594,119.06199645996094 C137.42100524902344,157.58099365234375 121.75900268554688,205.01699829101562 85.66400146484375,218.14300537109375z"></path></g><g opacity="1" transform="matrix(1,0,0,1,357.86700439453125,807.2020263671875)">
<path fill="rgb(48,32,19)" fill-opacity="1" d=" M84.07499694824219,179.90899658203125 C74.46099853515625,178.9499969482422 64.94400024414062,177.11700439453125 55.54499816894531,174.8489990234375 C46.14699935913086,172.56199645996094 36.880001068115234,169.7220001220703 27.799999237060547,166.35499572753906 C9.689000129699707,159.51400756835938 -7.6519999504089355,150.41600036621094 -23.16200065612793,138.6999969482422 C-38.654998779296875,126.99299621582031 -52.05699920654297,112.39700317382812 -62.055999755859375,95.68499755859375 C-72.0999984741211,78.98600006103516 -78.51899719238281,60.23400115966797 -81.62899780273438,41.04899978637695 C-83.21099853515625,31.447999954223633 -83.91799926757812,21.722000122070312 -83.94000244140625,12.012999534606934 C-84.07499694824219,7.15500020980835 -83.75900268554688,2.305999994277954 -83.59500122070312,-2.5420000553131104 C-83.20099639892578,-7.379000186920166 -82.93499755859375,-12.227999687194824 -82.27799987792969,-17.034000396728516 C-80.052001953125,-36.3129997253418 -75.77100372314453,-55.29999923706055 -70.03700256347656,-73.79000091552734 C-64.34300231933594,-92.29900360107422 -57.37900161743164,-110.38500213623047 -49.54999923706055,-128.0659942626953 C-41.64699935913086,-145.71800231933594 -32.900001525878906,-162.9709930419922 -23.606000900268555,-179.9080047607422 C-32.54999923706055,-162.7830047607422 -40.935001373291016,-145.36599731445312 -48.459999084472656,-127.59100341796875 C-56.047000885009766,-109.8489990234375 -62.797000885009766,-91.74199676513672 -68.24700164794922,-73.25 C-71.0250015258789,-64.02100372314453 -73.30599975585938,-54.65800094604492 -75.42500305175781,-45.26499938964844 C-77.33599853515625,-35.83300018310547 -79.09100341796875,-26.354000091552734 -80.0790023803711,-16.781999588012695 C-80.71499633789062,-12.01200008392334 -80.95700073242188,-7.208000183105469 -81.33000183105469,-2.4140000343322754 C-81.4749984741211,2.38700008392334 -81.76899719238281,7.190000057220459 -81.61699676513672,11.994000434875488 C-81.55999755859375,21.597999572753906 -80.81700134277344,31.20199966430664 -79.23300170898438,40.6619987487793 C-76.23400115966797,59.59400177001953 -69.98699951171875,78.07099914550781 -60.159000396728516,94.552001953125 C-50.39799880981445,111.07599639892578 -37.16899871826172,125.41699981689453 -22.02899932861328,137.2220001220703 C-6.821000099182129,148.9929962158203 10.295000076293945,158.21400451660156 28.224000930786133,165.2519989013672 C37.1879997253418,168.78500366210938 46.36399841308594,171.80299377441406 55.689998626708984,174.27699279785156 C65.01699829101562,176.72900390625 74.48500061035156,178.7530059814453 84.07499694824219,179.90899658203125z"></path></g><g opacity="1" transform="matrix(1,0,0,1,1093.0889892578125,450.3559875488281)">
<path fill="rgb(48,32,19)" fill-opacity="1" d=" M57.51300048828125,124.33999633789062 C57.51300048828125,124.33999633789062 55.15700149536133,123.73600006103516 55.15700149536133,123.73600006103516 C55.15700149536133,123.73600006103516 100.54100036621094,-53.02199935913086 100.54100036621094,-53.02199935913086 C103.39299774169922,-70.39900207519531 98.06900024414062,-89.12300109863281 86.28199768066406,-103.00499725341797 C76.08300018310547,-115.01899719238281 62.207000732421875,-121.90899658203125 48.21200180053711,-121.90899658203125 C48.21200180053711,-121.90899658203125 -18.981000900268555,-121.90899658203125 -18.981000900268555,-121.90899658203125 C-54.391998291015625,-121.90899658203125 -83.5979995727539,-95.13500213623047 -90.00800323486328,-56.79899978637695 C-90.00800323486328,-56.79899978637695 -103.47899627685547,121.50199890136719 -103.47899627685547,121.50199890136719 C-103.47899627685547,121.50199890136719 -105.90599822998047,121.31700134277344 -105.90599822998047,121.31700134277344 C-105.90599822998047,121.31700134277344 -92.4209976196289,-57.090999603271484 -92.4209976196289,-57.090999603271484 C-85.79900360107422,-96.73100280761719 -55.60599899291992,-124.33999633789062 -18.981000900268555,-124.33999633789062 C-18.981000900268555,-124.33999633789062 48.21200180053711,-124.33999633789062 48.21200180053711,-124.33999633789062 C62.922000885009766,-124.33999633789062 77.47200012207031,-117.13700103759766 88.13600158691406,-104.5780029296875 C100.37899780273438,-90.16000366210938 105.90499877929688,-70.6989974975586 102.91699981689453,-52.52199935913086 C102.91699981689453,-52.52199935913086 57.51300048828125,124.33999633789062 57.51300048828125,124.33999633789062z"></path></g><g opacity="1" transform="matrix(1,0,0,1,1092.928955078125,450.2969970703125)">
<path fill="rgb(48,32,19)" fill-opacity="1" d=" M34.17900085449219,124.27999877929688 C34.17900085449219,124.27999877929688 31.775999069213867,123.91500091552734 31.775999069213867,123.91500091552734 C31.775999069213867,123.91500091552734 58.57500076293945,-52.84199905395508 58.57500076293945,-52.84199905395508 C60.83700180053711,-76.19999694824219 54.358001708984375,-101.4469985961914 42.80799865722656,-114.1729965209961 C38.24800109863281,-119.19499969482422 33.191001892089844,-121.8479995727539 28.180999755859375,-121.8479995727539 C28.180999755859375,-121.8479995727539 -11.496999740600586,-121.8479995727539 -11.496999740600586,-121.8479995727539 C-32.1150016784668,-121.8479995727539 -49.15399932861328,-95.10800170898438 -52.93199920654297,-56.81999969482422 C-52.93199920654297,-56.81999969482422 -60.893001556396484,121.52400207519531 -60.893001556396484,121.52400207519531 C-60.893001556396484,121.52400207519531 -63.31999969482422,121.41500091552734 -63.31999969482422,121.41500091552734 C-63.31999969482422,121.41500091552734 -55.35599899291992,-56.99399948120117 -55.35599899291992,-56.99399948120117 C-51.38399887084961,-97.26499938964844 -33.7599983215332,-124.27999877929688 -11.496999740600586,-124.27999877929688 C-11.496999740600586,-124.27999877929688 28.180999755859375,-124.27999877929688 28.180999755859375,-124.27999877929688 C33.89400100708008,-124.27999877929688 39.57600021362305,-121.35099792480469 44.608001708984375,-115.80599975585938 C56.58399963378906,-102.61299896240234 63.319000244140625,-76.5979995727539 60.98699951171875,-52.542999267578125 C60.98699951171875,-52.542999267578125 34.17900085449219,124.27999877929688 34.17900085449219,124.27999877929688z"></path></g><g opacity="1" transform="matrix(1,0,0,1,1092.4749755859375,450.239013671875)">
<path fill="rgb(48,32,19)" fill-opacity="1" d=" M13.32699966430664,124.2229995727539 C13.32699966430664,124.2229995727539 10.899999618530273,124.08599853515625 10.899999618530273,124.08599853515625 C10.899999618530273,124.08599853515625 20.849000930786133,-52.67100143432617 20.849000930786133,-52.67100143432617 C22.054000854492188,-86.08599853515625 16.981000900268555,-115.52200317382812 11.675000190734863,-121.02300262451172 C11.182999610900879,-121.53299713134766 10.732000350952148,-121.79100036621094 10.333000183105469,-121.79100036621094 C10.333000183105469,-121.79100036621094 -4.39900016784668,-121.79100036621094 -4.39900016784668,-121.79100036621094 C-10.331999778747559,-121.79100036621094 -17.472999572753906,-99.0270004272461 -19.01799964904785,-56.83700180053711 C-19.01799964904785,-56.83700180053711 -21.975000381469727,121.5459976196289 -21.975000381469727,121.5459976196289 C-21.975000381469727,121.5459976196289 -24.4060001373291,121.50800323486328 -24.4060001373291,121.50800323486328 C-24.4060001373291,121.50800323486328 -21.448999404907227,-56.902000427246094 -21.448999404907227,-56.902000427246094 C-20.309999465942383,-87.97000122070312 -15.161999702453613,-124.2229995727539 -4.39900016784668,-124.2229995727539 C-4.39900016784668,-124.2229995727539 10.333000183105469,-124.2229995727539 10.333000183105469,-124.2229995727539 C11.416000366210938,-124.2229995727539 12.456000328063965,-123.71399688720703 13.425000190734863,-122.71199798583984 C19.895000457763672,-116.00299835205078 24.4060001373291,-83.87799835205078 23.27899932861328,-52.558998107910156 C23.27899932861328,-52.558998107910156 13.32699966430664,124.2229995727539 13.32699966430664,124.2229995727539z"></path></g><g opacity="1" transform="matrix(1,0,0,1,1099.2130126953125,790.281005859375)">
<path fill="rgb(48,32,19)" fill-opacity="1" d=" M19.3439998626709,207.9250030517578 C19.3439998626709,207.9250030517578 -19.3439998626709,207.9250030517578 -19.3439998626709,207.9250030517578 C-29.798999786376953,207.9250030517578 -38.48400115966797,199.33900451660156 -38.702999114990234,188.78700256347656 C-38.702999114990234,188.78700256347656 -46.345001220703125,-180.08900451660156 -46.345001220703125,-180.08900451660156 C-46.51599884033203,-188.38299560546875 -43.624000549316406,-196.19200134277344 -38.4109992980957,-201.51600646972656 C-34.36199951171875,-205.6479949951172 -29.174999237060547,-207.9250030517578 -23.80900001525879,-207.9250030517578 C-23.80900001525879,-207.9250030517578 23.808000564575195,-207.9250030517578 23.808000564575195,-207.9250030517578 C29.174999237060547,-207.9250030517578 34.36199951171875,-205.6479949951172 38.4109992980957,-201.51600646972656 C43.625,-196.19200134277344 46.51599884033203,-188.38299560546875 46.345001220703125,-180.08900451660156 C46.345001220703125,-180.08900451660156 38.702999114990234,188.78700256347656 38.702999114990234,188.78700256347656 C38.486000061035156,199.33900451660156 29.801000595092773,207.9250030517578 19.3439998626709,207.9250030517578z M-23.80900001525879,-205.4929962158203 C-28.517000198364258,-205.4929962158203 -33.08599853515625,-203.4770050048828 -36.672000885009766,-199.81300354003906 C-41.43299865722656,-194.95599365234375 -44.073001861572266,-187.78399658203125 -43.91299819946289,-180.14100646972656 C-43.91299819946289,-180.14100646972656 -36.270999908447266,188.73500061035156 -36.270999908447266,188.73500061035156 C-36.07899856567383,197.9759979248047 -28.48699951171875,205.49400329589844 -19.3439998626709,205.49400329589844 C-19.3439998626709,205.49400329589844 19.3439998626709,205.49400329589844 19.3439998626709,205.49400329589844 C28.48900032043457,205.49400329589844 36.08100128173828,197.9759979248047 36.270999908447266,188.73699951171875 C36.270999908447266,188.73699951171875 43.915000915527344,-180.14100646972656 43.915000915527344,-180.14100646972656 C44.07400131225586,-187.78399658203125 41.43299865722656,-194.95599365234375 36.672000885009766,-199.81300354003906 C33.08700180053711,-203.4770050048828 28.517000198364258,-205.4929962158203 23.808000564575195,-205.4929962158203 C23.808000564575195,-205.4929962158203 -23.80900001525879,-205.4929962158203 -23.80900001525879,-205.4929962158203z"></path></g><g opacity="1" transform="matrix(1,0,0,1,959.7230224609375,790.281005859375)">
<path fill="rgb(48,32,19)" fill-opacity="1" d=" M19.347000122070312,207.9250030517578 C19.347000122070312,207.9250030517578 -19.343000411987305,207.9250030517578 -19.343000411987305,207.9250030517578 C-29.797000885009766,207.9250030517578 -38.48400115966797,199.33900451660156 -38.70199966430664,188.78700256347656 C-38.70199966430664,188.78700256347656 -46.34299850463867,-180.08900451660156 -46.34299850463867,-180.08900451660156 C-46.516998291015625,-188.38099670410156 -43.624000549316406,-196.19000244140625 -38.40999984741211,-201.51400756835938 C-34.36199951171875,-205.6479949951172 -29.174999237060547,-207.9250030517578 -23.80699920654297,-207.9250030517578 C-23.80699920654297,-207.9250030517578 23.81100082397461,-207.9250030517578 23.81100082397461,-207.9250030517578 C29.177000045776367,-207.9250030517578 34.36399841308594,-205.6479949951172 38.4119987487793,-201.51600646972656 C43.62699890136719,-196.19200134277344 46.518001556396484,-188.38299560546875 46.34700012207031,-180.08900451660156 C46.34700012207031,-180.08900451660156 38.70399856567383,188.78700256347656 38.70399856567383,188.78700256347656 C38.486000061035156,199.33900451660156 29.802000045776367,207.9250030517578 19.347000122070312,207.9250030517578z M-23.80699920654297,-205.4929962158203 C-28.516000747680664,-205.4929962158203 -33.08399963378906,-203.47500610351562 -36.672000885009766,-199.81300354003906 C-41.43299865722656,-194.9530029296875 -44.07099914550781,-187.78199768066406 -43.9109992980957,-180.14100646972656 C-43.9109992980957,-180.14100646972656 -36.270999908447266,188.73500061035156 -36.270999908447266,188.73500061035156 C-36.077999114990234,197.9759979248047 -28.485000610351562,205.49400329589844 -19.343000411987305,205.49400329589844 C-19.343000411987305,205.49400329589844 19.347000122070312,205.49400329589844 19.347000122070312,205.49400329589844 C28.48900032043457,205.49400329589844 36.08100128173828,197.9759979248047 36.27299880981445,188.73500061035156 C36.27299880981445,188.73500061035156 43.91699981689453,-180.14100646972656 43.91699981689453,-180.14100646972656 C44.07500076293945,-187.78399658203125 41.435001373291016,-194.95599365234375 36.67399978637695,-199.81300354003906 C33.0890007019043,-203.4770050048828 28.520000457763672,-205.4929962158203 23.81100082397461,-205.4929962158203 C23.81100082397461,-205.4929962158203 -23.80699920654297,-205.4929962158203 -23.80699920654297,-205.4929962158203z"></path></g><g opacity="1" transform="matrix(1,0,0,1,1032.5799560546875,582.7670288085938)">
<path fill="rgb(144,71,34)" fill-opacity="1" d=" M-122.052001953125,8.909000396728516 C-40.78900146484375,14.73799991607666 40.7859992980957,14.73799991607666 122.04900360107422,8.909000396728516 C128.5570068359375,8.444000244140625 133.41799926757812,2.8350000381469727 132.90499877929688,-3.563999891281128 C132.38900756835938,-9.963000297546387 126.79299926757812,-14.73799991607666 120.38400268554688,-14.279999732971191 C40.22999954223633,-8.529000282287598 -40.23400115966797,-8.529000282287598 -120.38800048828125,-14.279999732971191 C-126.79199981689453,-14.73799991607666 -132.39599609375,-9.963000297546387 -132.9080047607422,-3.563999891281128 C-133.41900634765625,2.8350000381469727 -128.56100463867188,8.444000244140625 -122.052001953125,8.909000396728516z"></path></g><g opacity="1" transform="matrix(1,0,0,1,754.4000244140625,996.458984375)">
<path fill="rgb(48,32,19)" fill-opacity="1" d=" M504.093994140625,1.215999960899353 C504.093994140625,1.215999960899353 -504.093994140625,1.215999960899353 -504.093994140625,1.215999960899353 C-504.093994140625,1.215999960899353 -504.093994140625,-1.215999960899353 -504.093994140625,-1.215999960899353 C-504.093994140625,-1.215999960899353 504.093994140625,-1.215999960899353 504.093994140625,-1.215999960899353 C504.093994140625,-1.215999960899353 504.093994140625,1.215999960899353 504.093994140625,1.215999960899353z"></path></g></g></g><g clip-path="url(#__lottie_element_2552)" transform="matrix(1,0,0,1,103.5,162.5)" opacity="1" style="display: block;"><g transform="matrix(0.9986463189125061,-0.05201413854956627,0.05201413854956627,0.9986463189125061,93.34967803955078,77.4161376953125)" opacity="1" style="display: block;"><g opacity="1" transform="matrix(1,0,0,1,20.937999725341797,87.48300170898438)">
<path fill="rgb(48,32,19)" fill-opacity="1" d=" M-18.29199981689453,87.23200225830078 C-18.29199981689453,87.23200225830078 -20.687999725341797,86.69499969482422 -20.687999725341797,86.69499969482422 C-20.687999725341797,86.69499969482422 3.6589999198913574,-88.4010009765625 3.6589999198913574,-88.4010009765625 C3.6589999198913574,-88.4010009765625 6.054999828338623,-87.86499786376953 6.054999828338623,-87.86499786376953 C6.054999828338623,-87.86499786376953 -18.29199981689453,87.23200225830078 -18.29199981689453,87.23200225830078z"></path></g></g><g transform="matrix(0.9726976156234741,-0.23207584023475647,0.23207584023475647,0.9726976156234741,6.837540149688721,146.45506286621094)" opacity="1" style="display: block;"><g opacity="1" transform="matrix(1,0,0,1,71.2699966430664,75.35299682617188)">
<path fill="rgb(187,180,105)" fill-opacity="1" d=" M-34.290000915527344,-33.53099822998047 C11.072999954223633,-75.10299682617188 71.0199966430664,32.57699966430664 65.28600311279297,75.10299682617188 C65.28600311279297,75.10299682617188 42.63100051879883,75.10299682617188 42.63100051879883,75.10299682617188 C20.611000061035156,64.48400115966797 -71.02100372314453,0.12999999523162842 -34.290000915527344,-33.53099822998047z"></path></g><g opacity="1" transform="matrix(1,0,0,1,81.45800018310547,95.91100311279297)">
<path fill="rgb(139,132,60)" fill-opacity="1" d=" M43.11399841308594,55.027000427246094 C9.520000457763672,-6.431000232696533 -44.72700119018555,-52.689998626708984 -45.27000045776367,-53.1510009765625 C-45.27000045776367,-53.1510009765625 -43.683998107910156,-55.027000427246094 -43.683998107910156,-55.027000427246094 C-43.13600158691406,-54.5629997253418 11.458000183105469,-8.005000114440918 45.27000045776367,53.849998474121094 C45.27000045776367,53.849998474121094 43.11399841308594,55.027000427246094 43.11399841308594,55.027000427246094z"></path></g><g opacity="1" transform="matrix(1,0,0,1,72.625,103.51799774169922)">
<path fill="rgb(139,132,60)" fill-opacity="1" d=" M25.448999404907227,5.392000198364258 C23.839000701904297,5.223999977111816 -14.130000114440918,1.2389999628067017 -25.70199966430664,-3.0920000076293945 C-25.70199966430664,-3.0920000076293945 -24.841999053955078,-5.392000198364258 -24.841999053955078,-5.392000198364258 C-13.562000274658203,-1.1699999570846558 25.31100082397461,2.9079999923706055 25.70199966430664,2.947999954223633 C25.70199966430664,2.947999954223633 25.448999404907227,5.392000198364258 25.448999404907227,5.392000198364258z"></path></g><g opacity="1" transform="matrix(1,0,0,1,72.80899810791016,54.893001556396484)">
<path fill="rgb(139,132,60)" fill-opacity="1" d=" M-2.1110000610351562,17.683000564575195 C-2.1110000610351562,17.683000564575195 -4.389999866485596,16.766000747680664 -4.389999866485596,16.766000747680664 C0.878000020980835,3.6589999198913574 1.9270000457763672,-17.469999313354492 1.937000036239624,-17.683000564575195 C1.937000036239624,-17.683000564575195 4.389999866485596,-17.566999435424805 4.389999866485596,-17.566999435424805 C4.3480000495910645,-16.68600082397461 3.313999891281128,4.185999870300293 -2.1110000610351562,17.683000564575195z"></path></g><g opacity="1" transform="matrix(1,0,0,1,121.88200378417969,115.69200134277344)">
<path fill="rgb(0,0,0)" fill-opacity="1" d=" M-5.385000228881836,-34.763999938964844 C8.52400016784668,-10.39900016784668 16.999000549316406,17.530000686645508 14.675000190734863,34.763999938964844 C-16.999000549316406,7.138000011444092 -10.402999877929688,-30.22100067138672 -5.385000228881836,-34.763999938964844z"></path></g></g><g transform="matrix(0.9862728714942932,-0.1651233583688736,0.1651233583688736,0.9862728714942932,133.28713989257812,113.62018585205078)" opacity="1" style="display: block;"><g opacity="1" transform="matrix(1,0,0,1,36.67599868774414,77.41799926757812)">
<path fill="rgb(187,180,105)" fill-opacity="1" d=" M-3.8289999961853027,-60.43899917602539 C36.426998138427734,-77.16799926757812 24.30500030517578,23.301000595092773 -11.053999900817871,77.16699981689453 C-11.053999900817871,77.16699981689453 -27.538000106811523,77.16699981689453 -27.538000106811523,77.16699981689453 C-35.77000045776367,63.71699905395508 -36.42599868774414,-46.89400100708008 -3.8289999961853027,-60.43899917602539z"></path></g><g opacity="1" transform="matrix(1,0,0,1,27.94099998474121,91.10099792480469)">
<path fill="rgb(139,132,60)" fill-opacity="1" d=" M-10.638999938964844,63.73899841308594 C-10.638999938964844,63.73899841308594 -13.043000221252441,63.22800064086914 -13.043000221252441,63.22800064086914 C-6.716000080108643,33.415000915527344 10.45199966430664,-62.770999908447266 10.625,-63.73899841308594 C10.625,-63.73899841308594 13.043000221252441,-63.308998107910156 13.043000221252441,-63.308998107910156 C12.869999885559082,-62.340999603271484 -4.306000232696533,33.88600158691406 -10.638999938964844,63.73899841308594z"></path></g><g opacity="1" transform="matrix(1,0,0,1,32.40700149536133,112.47899627685547)">
<path fill="rgb(139,132,60)" fill-opacity="1" d=" M-7.929999828338623,9.699000358581543 C-7.929999828338623,9.699000358581543 -9.668999671936035,7.966000080108643 -9.668999671936035,7.966000080108643 C-9.668999671936035,7.966000080108643 7.929999828338623,-9.699000358581543 7.929999828338623,-9.699000358581543 C7.929999828338623,-9.699000358581543 9.668999671936035,-7.965000152587891 9.668999671936035,-7.965000152587891 C9.668999671936035,-7.965000152587891 -7.929999828338623,9.699000358581543 -7.929999828338623,9.699000358581543z"></path></g><g opacity="1" transform="matrix(1,0,0,1,19.496000289916992,74.71099853515625)">
<path fill="rgb(139,132,60)" fill-opacity="1" d=" M9.317000389099121,8.038999557495117 C9.317000389099121,8.038999557495117 -10.72599983215332,-6.0289998054504395 -10.72599983215332,-6.0289998054504395 C-10.72599983215332,-6.0289998054504395 -9.315999984741211,-8.038999557495117 -9.315999984741211,-8.038999557495117 C-9.315999984741211,-8.038999557495117 10.72599983215332,6.0289998054504395 10.72599983215332,6.0289998054504395 C10.72599983215332,6.0289998054504395 9.317000389099121,8.038999557495117 9.317000389099121,8.038999557495117z"></path></g></g><g transform="matrix(0.9986463189125061,-0.05201413854956627,0.05201413854956627,0.9986463189125061,150.50477600097656,61.24238204956055)" opacity="1" style="display: block;"><g opacity="1" transform="matrix(1,0,0,1,24.365999221801758,94.08300018310547)">
<path fill="rgb(48,32,19)" fill-opacity="1" d=" M21.729000091552734,93.83399963378906 C21.729000091552734,93.83399963378906 -16.384000778198242,-107.83699798583984 -16.384000778198242,-107.83699798583984 C-16.384000778198242,-107.83699798583984 -13.996999740600586,-108.4219970703125 -13.996999740600586,-108.4219970703125 C-13.996999740600586,-108.4219970703125 24.115999221801758,93.2490005493164 24.115999221801758,93.2490005493164 C24.115999221801758,93.2490005493164 21.729000091552734,93.83399963378906 21.729000091552734,93.83399963378906z"></path></g></g><g transform="matrix(0.9986463189125061,-0.05201413854956627,0.05201413854956627,0.9986463189125061,92.86920928955078,250.81484985351562)" opacity="1" style="display: block;"><g opacity="1" transform="matrix(1,0,0,1,63.28900146484375,15.394000053405762)">
<path fill="rgb(255,255,255)" fill-opacity="1" d=" M-53.40299987792969,15.144000053405762 C-53.40299987792969,15.144000053405762 53.40399932861328,15.144000053405762 53.40399932861328,15.144000053405762 C58.724998474121094,15.144000053405762 63.03900146484375,10.829999923706055 63.03900146484375,5.507999897003174 C63.03900146484375,5.507999897003174 63.03900146484375,-5.506999969482422 63.03900146484375,-5.506999969482422 C63.03900146484375,-10.829999923706055 58.724998474121094,-15.144000053405762 53.402000427246094,-15.144000053405762 C53.402000427246094,-15.144000053405762 -53.40399932861328,-15.144000053405762 -53.40399932861328,-15.144000053405762 C-58.72600173950195,-15.144000053405762 -63.03900146484375,-10.829999923706055 -63.03900146484375,-5.506999969482422 C-63.03900146484375,-5.506999969482422 -63.03900146484375,5.506999969482422 -63.03900146484375,5.506999969482422 C-63.03900146484375,10.829999923706055 -58.72600173950195,15.144000053405762 -53.40299987792969,15.144000053405762z"></path></g><g opacity="1" transform="matrix(1,0,0,1,63.28799819946289,45.32899856567383)">
<path fill="rgb(255,255,255)" fill-opacity="1" d=" M-35.92100143432617,15.144000053405762 C-35.92100143432617,15.144000053405762 35.922000885009766,15.144000053405762 35.922000885009766,15.144000053405762 C35.922000885009766,15.144000053405762 53.53099822998047,-15.144000053405762 53.53099822998047,-15.144000053405762 C53.53099822998047,-15.144000053405762 -53.53099822998047,-15.144000053405762 -53.53099822998047,-15.144000053405762 C-53.53099822998047,-15.144000053405762 -35.92100143432617,15.144000053405762 -35.92100143432617,15.144000053405762z"></path></g><g opacity="1" transform="matrix(1,0,0,1,48.62900161743164,29.70199966430664)">
<path fill="rgb(48,32,19)" fill-opacity="1" d=" M33.016998291015625,1.2280000448226929 C33.016998291015625,1.2280000448226929 -33.016998291015625,1.2280000448226929 -33.016998291015625,1.2280000448226929 C-33.016998291015625,1.2280000448226929 -33.016998291015625,-1.2280000448226929 -33.016998291015625,-1.2280000448226929 C-33.016998291015625,-1.2280000448226929 33.016998291015625,-1.2280000448226929 33.016998291015625,-1.2280000448226929 C33.016998291015625,-1.2280000448226929 33.016998291015625,1.2280000448226929 33.016998291015625,1.2280000448226929z"></path></g></g></g><g clip-path="url(#__lottie_element_2556)" transform="matrix(1,0,0,1,354,114)" opacity="1" style="display: block;"><g transform="matrix(1,0,0,1,199.92401123046875,820.9949951171875)" opacity="1" style="display: block;"><g opacity="1" transform="matrix(1,0,0,1,84.23200225830078,70.46199798583984)">
<path fill="rgb(0,0,0)" fill-opacity="1" d=" M27.690000534057617,-70.21299743652344 C27.690000534057617,-70.21299743652344 35.15800094604492,-3.2739999294281006 -13.265000343322754,28.80699920654297 C-61.6879997253418,60.88600158691406 -83.98200225830078,49.60200119018555 -83.98200225830078,59.619998931884766 C-83.98200225830078,65.927001953125 -46.7599983215332,70.21299743652344 -4.995999813079834,63.55500030517578 C36.77000045776367,56.895999908447266 42.823001861572266,46.60499954223633 42.823001861572266,46.60499954223633 C42.823001861572266,46.60499954223633 42.823001861572266,66.59200286865234 42.823001861572266,66.59200286865234 C42.823001861572266,66.59200286865234 73.69100189208984,66.59200286865234 73.69100189208984,66.59200286865234 C73.69100189208984,66.59200286865234 78.53500366210938,28.447999954223633 78.53500366210938,28.447999954223633 C78.53500366210938,28.447999954223633 83.98200225830078,10.894000053405762 79.74400329589844,-3.0269999504089355 C75.50700378417969,-16.947999954223633 68.44599914550781,-47.816001892089844 72.68199920654297,-67.79000091552734 C72.68199920654297,-67.79000091552734 27.690000534057617,-70.21299743652344 27.690000534057617,-70.21299743652344z"></path></g><g opacity="1" transform="matrix(1,0,0,1,121.99299621582031,75.98999786376953)">
<path fill="rgb(255,255,255)" fill-opacity="1" d=" M-25.697999954223633,52.013999938964844 C-25.697999954223633,52.013999938964844 -26.690000534057617,49.79199981689453 -26.690000534057617,49.79199981689453 C-7.5279998779296875,41.24399948120117 6.34499979019165,31.73900032043457 16.97800064086914,19.878000259399414 C24.094999313354492,11.940999984741211 22.554000854492188,2.984999895095825 20.770999908447266,-7.381999969482422 C20.10099983215332,-11.276000022888184 19.406999588012695,-15.302000045776367 19.150999069213867,-19.483999252319336 C18.222999572753906,-34.641998291015625 20.69099998474121,-51.84000015258789 20.714000701904297,-52.013999938964844 C20.714000701904297,-52.013999938964844 23.121000289916992,-51.66299819946289 23.121000289916992,-51.66299819946289 C23.094999313354492,-51.494998931884766 20.666000366210938,-34.5369987487793 21.577999114990234,-19.631999969482422 C21.825000762939453,-15.586000442504883 22.506999969482422,-11.621999740600586 23.16699981689453,-7.791999816894531 C24.979000091552734,2.740000009536743 26.690000534057617,12.6850004196167 18.78700065612793,21.500999450683594 C7.919000148773193,33.625 -6.215000152587891,43.32099914550781 -25.697999954223633,52.013999938964844z"></path></g><g opacity="1" transform="matrix(1,0,0,1,56.67900085449219,127.2979965209961)">
<path fill="rgb(255,255,255)" fill-opacity="1" d=" M-12.935999870300293,3.377000093460083 C-35.005001068115234,3.377000093460083 -52.68600082397461,2.381999969482422 -53.0369987487793,2.359999895095825 C-53.0369987487793,2.359999895095825 -52.89400100708008,-0.06400000303983688 -52.89400100708008,-0.06400000303983688 C-52.20100021362305,-0.027000000700354576 16.989999771118164,3.865999937057495 52.51900100708008,-3.867000102996826 C52.51900100708008,-3.867000102996826 53.0369987487793,-1.4930000305175781 53.0369987487793,-1.4930000305175781 C35.178001403808594,2.3970000743865967 8.961000442504883,3.377000093460083 -12.935999870300293,3.377000093460083z"></path></g></g><g transform="matrix(1,0,0,1,592.1810302734375,772.5700073242188)" opacity="1" style="display: block;"><g opacity="1" transform="matrix(1,0,0,1,56.99300003051758,92.95700073242188)">
<path fill="rgb(0,0,0)" fill-opacity="1" d=" M-56.74300003051758,-68.73400115966797 C-56.74300003051758,-68.73400115966797 -28.099000930786133,-25.768999099731445 -22.892000198364258,4.607999801635742 C-17.684999465942383,34.98699951171875 -17.110000610351562,57.678001403808594 -8.137999534606934,71.00800323486328 C0.8379999995231628,84.33799743652344 3.7190001010894775,90.2249984741211 6.185999870300293,92.70800018310547 C6.185999870300293,92.70800018310547 50.016998291015625,92.70800018310547 50.016998291015625,92.70800018310547 C50.016998291015625,92.70800018310547 56.74300003051758,73.8290023803711 51.10200119018555,52.99700164794922 C45.459999084472656,32.16600036621094 5.374000072479248,-64.14900207519531 1.6480000019073486,-92.70800018310547 C1.6480000019073486,-92.70800018310547 -56.74300003051758,-68.73400115966797 -56.74300003051758,-68.73400115966797z"></path></g><g opacity="1" transform="matrix(1,0,0,1,83.4229965209961,176.97300720214844)">
<path fill="rgb(255,255,255)" fill-opacity="1" d=" M27.15999984741211,1.215999960899353 C27.15999984741211,1.215999960899353 -27.15999984741211,1.215999960899353 -27.15999984741211,1.215999960899353 C-27.15999984741211,1.215999960899353 -27.15999984741211,-1.215999960899353 -27.15999984741211,-1.215999960899353 C-27.15999984741211,-1.215999960899353 27.15999984741211,-1.215999960899353 27.15999984741211,-1.215999960899353 C27.15999984741211,-1.215999960899353 27.15999984741211,1.215999960899353 27.15999984741211,1.215999960899353z"></path></g><g opacity="1" transform="matrix(1,0,0,1,41.446998596191406,110.78299713134766)">
<path fill="rgb(255,255,255)" fill-opacity="1" d=" M14.779999732971191,52.236000061035156 C2.2279999256134033,35.79800033569336 2.365999937057495,15.871000289916992 2.4670000076293945,1.3200000524520874 C2.509999990463257,-4.794000148773193 2.546999931335449,-10.074999809265137 1.7269999980926514,-14.064000129699707 C-1.0889999866485596,-27.733999252319336 -16.55699920654297,-50.64400100708008 -16.71299934387207,-50.874000549316406 C-16.71299934387207,-50.874000549316406 -14.699000358581543,-52.236000061035156 -14.699000358581543,-52.236000061035156 C-14.053999900817871,-51.284000396728516 1.1950000524520874,-28.700000762939453 4.105999946594238,-14.553000450134277 C4.980000019073486,-10.312000274658203 4.941999912261963,-4.9120001792907715 4.89900016784668,1.3380000591278076 C4.795000076293945,16.327999114990234 4.664000034332275,34.98400115966797 16.71299934387207,50.7599983215332 C16.71299934387207,50.7599983215332 14.779999732971191,52.236000061035156 14.779999732971191,52.236000061035156z"></path></g></g><g transform="matrix(0.9955570101737976,0.09416044503450394,-0.09416044503450394,0.9955570101737976,450.2708435058594,-17.92730140686035)" opacity="1" style="display: block;"><g opacity="1" transform="matrix(1,0,0,1,50.95000076293945,149.91299438476562)">
<path fill="rgb(48,32,19)" fill-opacity="1" d=" M44.361000061035156,-122.39099884033203 C43.41299819946289,-136.8300018310547 12.41100025177002,-149.66299438476562 -13.633000373840332,-121.19999694824219 C-50.70100021362305,-80.69400024414062 -44.020999908447266,123.98100280761719 -48.08100128173828,135.1790008544922 C-48.08100128173828,135.1790008544922 23.22599983215332,149.66200256347656 40.18000030517578,120.72699737548828 C40.18000030517578,120.72699737548828 50.70100021362305,-25.718000411987305 44.361000061035156,-122.39099884033203z"></path></g></g><g transform="matrix(0.9652950763702393,-0.2611616253852844,0.2611616253852844,0.9652950763702393,200.07870483398438,298.7502136230469)" opacity="1" style="display: block;"><g opacity="1" transform="matrix(1,0,0,1,90.16400146484375,36.915000915527344)">
<path fill="rgb(230,160,155)" fill-opacity="1" d=" M-74.16600036621094,-11.159000396728516 C-74.16600036621094,-11.159000396728516 -89.91400146484375,16.134000778198242 -89.91400146484375,16.134000778198242 C-66.13500213623047,24.677000045776367 38.803001403808594,36.665000915527344 70.73699951171875,20.09000015258789 C88.8239974975586,10.70300006866455 89.91400146484375,-6.03000020980835 87.68699645996094,-14.449000358581543 C82.27999877929688,-34.90399932861328 58.439998626708984,-36.66400146484375 34.861000061035156,-34.08700180053711 C31.59000015258789,-33.72999954223633 -74.16600036621094,-11.159000396728516 -74.16600036621094,-11.159000396728516z"></path></g></g><g transform="matrix(0.9520707130432129,0.3058781027793884,-0.3058781027793884,0.9520707130432129,391.1734313964844,70.05815124511719)" opacity="1" style="display: block;"><g opacity="1" transform="matrix(1,0,0,1,60.492000579833984,121.2229995727539)">
<path fill="rgb(241,205,93)" fill-opacity="1" d=" M6.807000160217285,-65.19599914550781 C-10.446000099182129,-44.981998443603516 -42.47100067138672,26.49799919128418 -60.242000579833984,68.41000366210938 C-46.02299880981445,77.90899658203125 -42.900001525878906,114.11799621582031 -15.718999862670898,120.9729995727539 C6.9679999351501465,105.09200286865234 36.64699935913086,66.41999816894531 47.06800079345703,36.236000061035156 C60.242000579833984,-1.9119999408721924 54.409000396728516,-120.9729995727539 6.807000160217285,-65.19599914550781z"></path></g></g><g transform="matrix(0.9934467673301697,0.11429563164710999,-0.11429563164710999,0.9934467673301697,340.41363525390625,331.30743408203125)" opacity="1" style="display: block;"><g opacity="1" transform="matrix(1,0,0,1,85.30799865722656,296.9360046386719)">
<path fill="rgb(255,255,255)" fill-opacity="1" d=" M27.583999633789062,-296.6860046386719 C27.583999633789062,-296.6860046386719 -36.09700012207031,-239.156005859375 -47.150001525878906,-142.93499755859375 C-58.20100021362305,-46.715999603271484 -67.28299713134766,32.96699905395508 -67.4260025024414,93.10399627685547 C-67.56600189208984,153.2429962158203 -71.02100372314453,239.76699829101562 -85.05899810791016,263.8210144042969 C-85.05899810791016,263.8210144042969 -7.806000232696533,296.6860046386719 84.09500122070312,284.26300048828125 C84.09500122070312,284.26300048828125 85.05799865722656,49.87799835205078 83.29299926757812,-45.59000015258789 C81.5260009765625,-141.0570068359375 77.8740005493164,-291.02398681640625 77.8740005493164,-291.02398681640625 C77.8740005493164,-291.02398681640625 27.583999633789062,-296.6860046386719 27.583999633789062,-296.6860046386719z"></path></g><g opacity="1" transform="matrix(1,0,0,1,88.58300018310547,543.1900024414062)">
<path fill="rgb(236,226,221)" fill-opacity="1" d=" M39.512001037597656,8.071999549865723 C10.904999732971191,8.071999549865723 -31.13599967956543,3.921999931335449 -78.14099884033203,-14.241000175476074 C-78.14099884033203,-14.241000175476074 -77.26300048828125,-16.51300048828125 -77.26300048828125,-16.51300048828125 C8.194999694824219,16.511999130249023 76.96499633789062,2.88700008392334 77.64700317382812,2.75 C77.64700317382812,2.75 78.14099884033203,5.130000114440918 78.14099884033203,5.130000114440918 C77.82499694824219,5.196000099182129 63.321998596191406,8.071999549865723 39.512001037597656,8.071999549865723z"></path></g><g opacity="1" transform="matrix(1,0,0,1,99.04100036621094,458.7909851074219)">
<path fill="rgb(48,32,19)" fill-opacity="1" d=" M20.76300048828125,48.577999114990234 C-11.480999946594238,4.388999938964844 -22.6200008392334,-47.56100082397461 -22.729000091552734,-48.08100128173828 C-22.729000091552734,-48.08100128173828 -20.349000930786133,-48.577999114990234 -20.349000930786133,-48.577999114990234 C-20.239999771118164,-48.06399917602539 -9.199000358581543,3.3910000324249268 22.729000091552734,47.143001556396484 C22.729000091552734,47.143001556396484 20.76300048828125,48.577999114990234 20.76300048828125,48.577999114990234z"></path></g></g><g transform="matrix(0.9934467673301697,0.11429563164710999,-0.11429563164710999,0.9934467673301697,447.86627197265625,311.51947021484375)" opacity="1" style="display: block;"><g opacity="1" transform="matrix(1,0,0,1,29.19099998474121,188.2449951171875)">
<path fill="rgb(48,32,19)" fill-opacity="1" d=" M4.002999782562256,-60.10200119018555 C4.002999782562256,-60.10200119018555 -8.664999961853027,-53.560001373291016 -28.94099998474121,-76.25599670410156 C-28.94099998474121,-76.25599670410156 3.9070000648498535,21.143999099731445 28.94099998474121,76.25599670410156 C28.94099998474121,76.25599670410156 3.193000078201294,-43.85200119018555 4.002999782562256,-60.10200119018555z"></path></g><g opacity="1" transform="matrix(1,0,0,1,158.3070068359375,289.96600341796875)">
<path fill="rgb(255,255,255)" fill-opacity="1" d=" M-44.47999954223633,-289.71600341796875 C-44.47999954223633,-289.71600341796875 15.668000221252441,-211.39300537109375 41.87200164794922,-107.94400024414062 C68.0739974975586,-4.49399995803833 44.31700134277344,2.2019999027252197 81.0719985961914,78.61299896240234 C117.8239974975586,155.02499389648438 108.38300323486328,141.281005859375 137.04100036621094,218.2100067138672 C137.04100036621094,218.2100067138672 62.1870002746582,285.55999755859375 -21.832000732421875,289.71600341796875 C-21.832000732421875,289.71600341796875 -93.31900024414062,8.331000328063965 -111.63800048828125,-83.30599975585938 C-129.95799255371094,-174.94000244140625 -131.29800415039062,-231.91400146484375 -137.04100036621094,-266.1180114746094 C-137.04100036621094,-266.1180114746094 -44.47999954223633,-289.71600341796875 -44.47999954223633,-289.71600341796875z"></path></g><g opacity="1" transform="matrix(1,0,0,1,203.83099365234375,269.614013671875)">
<path fill="rgb(48,32,19)" fill-opacity="1" d=" M80.30000305175781,242.09300231933594 C80.0009994506836,241.05999755859375 49.845001220703125,138.12600708007812 21.097000122070312,92.24299621582031 C1.4639999866485596,60.91400146484375 -0.652999997138977,40.8849983215332 -4.495999813079834,4.525000095367432 C-6.35699987411499,-13.086999893188477 -8.675999641418457,-35.00600051879883 -13.711999893188477,-63.82500076293945 C-28.684999465942383,-149.48800659179688 -82.0989990234375,-239.9459991455078 -82.63700103759766,-240.8489990234375 C-82.63700103759766,-240.8489990234375 -80.5459976196289,-242.09300231933594 -80.5459976196289,-242.09300231933594 C-80.00700378417969,-241.18499755859375 -26.367000579833984,-150.33999633789062 -11.317000389099121,-64.24299621582031 C-6.263999938964844,-35.34400177001953 -3.943000078201294,-13.378999710083008 -2.0789999961853027,4.26800012588501 C1.7269999980926514,40.270999908447266 3.8239998817443848,60.099998474121094 23.158000946044922,90.95099639892578 C52.08599853515625,137.12100219726562 82.33300018310547,240.37600708007812 82.63700103759766,241.41400146484375 C82.63700103759766,241.41400146484375 80.30000305175781,242.09300231933594 80.30000305175781,242.09300231933594z"></path></g><g opacity="1" transform="matrix(1,0,0,1,73.96700286865234,308.3380126953125)">
<path fill="rgb(48,32,19)" fill-opacity="1" d=" M40.39400100708008,188.40199279785156 C15.352999687194824,88.10399627685547 -16.929000854492188,-43.597999572753906 -28.490999221801758,-101.44100189208984 C-34.29499816894531,-130.46400451660156 -38.95800018310547,-158.80599975585938 -42.75400161743164,-188.08799743652344 C-42.75400161743164,-188.08799743652344 -40.34199905395508,-188.40199279785156 -40.34199905395508,-188.40199279785156 C-36.55400085449219,-159.1739959716797 -31.89699935913086,-130.88400268554688 -26.106000900268555,-101.91500091552734 C-14.550999641418457,-44.119998931884766 17.718000411987305,87.54100036621094 42.75400161743164,187.81300354003906 C42.75400161743164,187.81300354003906 40.39400100708008,188.40199279785156 40.39400100708008,188.40199279785156z"></path></g><g opacity="1" transform="matrix(1,0,0,1,214.1269989013672,516.1920166015625)">
<path fill="rgb(236,226,221)" fill-opacity="1" d=" M-71.18599700927734,34.042999267578125 C-71.18599700927734,34.042999267578125 -71.64199829101562,31.65399932861328 -71.64199829101562,31.65399932861328 C18.29400062561035,14.420999526977539 69.45800018310547,-33.558998107910156 69.96499633789062,-34.042999267578125 C69.96499633789062,-34.042999267578125 71.64199829101562,-32.28300094604492 71.64199829101562,-32.28300094604492 C71.13099670410156,-31.79400062561035 19.493999481201172,16.66699981689453 -71.18599700927734,34.042999267578125z"></path></g></g><g transform="matrix(0.9941585063934326,0.10792995244264603,-0.10792995244264603,0.9941585063934326,404.0946044921875,123.63713073730469)" opacity="1" style="display: block;"><g opacity="1" transform="matrix(1,0,0,1,98.69300079345703,128.91400146484375)">
<path fill="rgb(241,205,93)" fill-opacity="1" d=" M-11.02299976348877,-125.31199645996094 C3.4100000858306885,-124.94300079345703 32.68600082397461,-125.68800354003906 43.54100036621094,-122.58399963378906 C92.88400268554688,-108.47799682617188 89.8489990234375,-73.28299713134766 87.45500183105469,-34.82600021362305 C82.49600219726562,44.893001556396484 98.44400024414062,99.84600067138672 98.44400024414062,99.84600067138672 C98.44400024414062,99.84600067138672 9.21399974822998,125.87300109863281 -66.0719985961914,107.91899871826172 C-66.0719985961914,107.91899871826172 -33.15700149536133,50.154998779296875 -70.27999877929688,-5.289999961853027 C-98.44400024414062,-47.35300064086914 -59.099998474121094,-84.9739990234375 -54.525001525878906,-109.59400177001953 C-51.5,-125.8740005493164 -18.656999588012695,-125.50599670410156 -11.02299976348877,-125.31199645996094z"></path></g><g opacity="1" transform="matrix(1,0,0,1,176.3780059814453,121.69100189208984)">
<path fill="rgb(48,32,19)" fill-opacity="1" d=" M5.9079999923706055,112.04000091552734 C5.9079999923706055,112.04000091552734 5.372000217437744,109.66799926757812 5.372000217437744,109.66799926757812 C12.305000305175781,108.0999984741211 17.17300033569336,106.802001953125 19.267000198364258,106.2239990234375 C17.025999069213867,97.77799987792969 4.0370001792907715,44.98699951171875 8.557999610900879,-27.679000854492188 C8.557999610900879,-27.679000854492188 8.675000190734863,-29.552000045776367 8.675000190734863,-29.552000045776367 C10.848999977111816,-64.26899719238281 12.725000381469727,-94.25 -22.26300048828125,-109.81700134277344 C-22.26300048828125,-109.81700134277344 -21.274999618530273,-112.04000091552734 -21.274999618530273,-112.04000091552734 C15.256999969482422,-95.78500366210938 13.23799991607666,-63.540000915527344 11.10099983215332,-29.399999618530273 C11.10099983215332,-29.399999618530273 10.984999656677246,-27.527000427246094 10.984999656677246,-27.527000427246094 C6.09499979019165,51.03900146484375 21.767000198364258,106.18099975585938 21.927000045776367,106.7300033569336 C21.927000045776367,106.7300033569336 22.26300048828125,107.8949966430664 22.26300048828125,107.8949966430664 C22.26300048828125,107.8949966430664 21.097999572753906,108.23500061035156 21.097999572753906,108.23500061035156 C21.04400062561035,108.25199890136719 15.378000259399414,109.89700317382812 5.9079999923706055,112.04000091552734z"></path></g><g opacity="1" transform="matrix(1,0,0,1,31.56999969482422,138.25599670410156)">
<path fill="rgb(48,32,19)" fill-opacity="1" d=" M11.668000221252441,74.13200378417969 C11.668000221252441,74.13200378417969 9.317000389099121,73.51699829101562 9.317000389099121,73.51699829101562 C15.098999977111816,51.43600082397461 17.454999923706055,18.336999893188477 -4.164999961853027,-13.956999778747559 C-19.979000091552734,-37.573001861572266 -14.23799991607666,-59.61000061035156 -8.545999526977539,-74.13200378417969 C-8.545999526977539,-74.13200378417969 -6.281000137329102,-73.24400329589844 -6.281000137329102,-73.24400329589844 C-11.774999618530273,-59.23099899291992 -17.323999404907227,-37.97800064086914 -2.1459999084472656,-15.309000015258789 C19.979000091552734,17.73699951171875 17.577999114990234,51.56999969482422 11.668000221252441,74.13200378417969z"></path></g><g opacity="1" transform="matrix(1,0,0,1,44.18600082397461,128.87600708007812)">
<path fill="rgb(48,32,19)" fill-opacity="1" d=" M16.281999588012695,5.8979997634887695 C16.18400001525879,5.892000198364258 15.984999656677246,5.890999794006348 15.699999809265137,5.889999866485596 C2.069999933242798,5.788000106811523 -9.043000221252441,2.3469998836517334 -16.437999725341797,-4.059999942779541 C-16.437999725341797,-4.059999942779541 -14.845000267028809,-5.8979997634887695 -14.845000267028809,-5.8979997634887695 C-7.992000102996826,0.03999999910593033 2.8610000610351562,3.361999988555908 15.717000007629395,3.4590001106262207 C16.06999969482422,3.4609999656677246 16.315000534057617,3.4639999866485596 16.437999725341797,3.4719998836517334 C16.437999725341797,3.4719998836517334 16.281999588012695,5.8979997634887695 16.281999588012695,5.8979997634887695z"></path></g><g opacity="1" transform="matrix(1,0,0,1,108.41500091552734,29.209999084472656)">
<path fill="rgb(230,160,155)" fill-opacity="1" d=" M51.50899887084961,-15.798999786376953 C46.518001556396484,-18.531999588012695 40.875,-21.759000778198242 33.82099914550781,-22.881000518798828 C-4.375,-28.959999084472656 -33.051998138427734,-25.25200080871582 -36.016998291015625,-25.17799949645996 C-48.49599838256836,-24.8700008392334 -51.50899887084961,-13.501999855041504 -49.8129997253418,-1.1349999904632568 C-45.68899917602539,28.958999633789062 20.136999130249023,24.476999282836914 51.50899887084961,-15.798999786376953z"></path></g><g opacity="1" transform="matrix(1,0,0,1,87.39900207519531,109.88899993896484)">
<path fill="rgb(48,32,19)" fill-opacity="1" d=" M7.804999828338623,22.58799934387207 C-9.604999542236328,3.390000104904175 -2.7260000705718994,-22.33099937438965 -2.6549999713897705,-22.58799934387207 C-2.6549999713897705,-22.58799934387207 -0.31299999356269836,-21.93899917602539 -0.31299999356269836,-21.93899917602539 C-0.3799999952316284,-21.69300079345703 -6.886000156402588,2.7679998874664307 9.604999542236328,20.95400047302246 C9.604999542236328,20.95400047302246 7.804999828338623,22.58799934387207 7.804999828338623,22.58799934387207z"></path></g></g><g transform="matrix(0.2962082028388977,0.9551233649253845,-0.9551233649253845,0.2962082028388977,593.9475708007812,129.94415283203125)" opacity="1" style="display: block;"><g opacity="1" transform="matrix(1,0,0,1,76.10099792480469,120.15299987792969)">
<path fill="rgb(241,205,93)" fill-opacity="1" d=" M75.29499816894531,84.34100341796875 C74.26499938964844,59.53499984741211 37.470001220703125,-28.655000686645508 -10.538000106811523,-75.4219970703125 C-56.20000076293945,-119.90299987792969 -75.85099792480469,-46.167999267578125 -59.790000915527344,-15.40999984741211 C-48.97200012207031,5.303999900817871 7.432000160217285,91.45099639892578 23.406999588012695,103.13700103759766 C46.327999114990234,119.90299987792969 75.85099792480469,97.73899841308594 75.29499816894531,84.34100341796875z"></path></g><g opacity="1" transform="matrix(1,0,0,1,129.67799377441406,151.50999450683594)">
<path fill="rgb(48,32,19)" fill-opacity="1" d=" M20.016000747680664,50.012001037597656 C13.498000144958496,0.3050000071525574 -22.06999969482422,-48.08100128173828 -22.42799949645996,-48.56399917602539 C-22.42799949645996,-48.56399917602539 -20.47599983215332,-50.012001037597656 -20.47599983215332,-50.012001037597656 C-20.113000869750977,-49.52399826049805 15.829000473022461,-0.6290000081062317 22.42799949645996,49.69599914550781 C22.42799949645996,49.69599914550781 20.016000747680664,50.012001037597656 20.016000747680664,50.012001037597656z"></path></g><g opacity="1" transform="matrix(1,0,0,1,55.96799850463867,161.36300659179688)">
<path fill="rgb(48,32,19)" fill-opacity="1" d=" M12.765000343322754,26.058000564575195 C-0.007000000216066837,9.164999961853027 -14.555999755859375,-24.763999938964844 -14.701000213623047,-25.104000091552734 C-14.701000213623047,-25.104000091552734 -12.46399974822998,-26.058000564575195 -12.46399974822998,-26.058000564575195 C-12.319000244140625,-25.719999313354492 2.111999988555908,7.939000129699707 14.701000213623047,24.590999603271484 C14.701000213623047,24.590999603271484 12.765000343322754,26.058000564575195 12.765000343322754,26.058000564575195z"></path></g></g><g transform="matrix(-0.3309590816497803,0.9436450600624084,-0.9436450600624084,-0.3309590816497803,519.0961303710938,170.99578857421875)" opacity="1" style="display: block;"><g opacity="1" transform="matrix(1,0,0,1,98.33100128173828,30.985000610351562)">
<path fill="rgb(230,160,155)" fill-opacity="1" d=" M47.14400100708008,-26.81599998474121 C21.003000259399414,-22.89699935913086 -56.41299819946289,-0.7549999952316284 -64.0199966430664,1.343999981880188 C-66.4530029296875,2.0160000324249268 -68.53700256347656,2.4140000343322754 -70.6240005493164,2.2920000553131104 C-98.08200073242188,7.734000205993652 -86.08100128173828,30.733999252319336 -71.3239974975586,30.465999603271484 C-71.3239974975586,30.465999603271484 66.11100006103516,30.465999603271484 66.11100006103516,30.465999603271484 C98.08100128173828,8.656999588012695 73.28800201416016,-30.735000610351562 47.14400100708008,-26.81599998474121z"></path></g></g><g transform="matrix(0.9941585063934326,0.10792995244264603,-0.10792995244264603,0.9941585063934326,496.55078125,82.02584838867188)" opacity="1" style="display: block;"><g opacity="1" transform="matrix(1,0,0,1,24.586999893188477,35.573001861572266)">
<path fill="rgb(230,160,155)" fill-opacity="1" d=" M-21.770999908447266,-21.097000122070312 C-21.770999908447266,-21.097000122070312 -24.336999893188477,21.635000228881836 -24.336999893188477,21.635000228881836 C-22.291000366210938,25.07699966430664 -7.349999904632568,35.323001861572266 20.735000610351562,24.643999099731445 C20.735000610351562,24.643999099731445 24.336999893188477,-35.323001861572266 24.336999893188477,-35.323001861572266 C24.336999893188477,-35.323001861572266 6.7829999923706055,-28.327999114990234 -21.770999908447266,-21.097000122070312z"></path></g><g opacity="1" transform="matrix(1,0,0,1,25.264999389648438,19.19700050354004)">
<path fill="rgb(48,32,19)" fill-opacity="1" d=" M-23.198999404907227,7.697999954223633 C-23.198999404907227,7.697999954223633 -23.72100067138672,16.336999893188477 -23.72100067138672,16.336999893188477 C0.1509999930858612,18.249000549316406 20.593000411987305,1.9179999828338623 22.660999298095703,-2.3429999351501465 C22.660999298095703,-2.3429999351501465 23.72100067138672,-18.249000549316406 23.61400032043457,-18.177000045776367 C-4.869999885559082,-3.3940000534057617 -19.863000869750977,8.26200008392334 -23.198999404907227,7.697999954223633z"></path></g></g><g transform="matrix(0.9955570101737976,0.09416044503450394,-0.09416044503450394,0.9955570101737976,482.5831604003906,5.259252548217773)" opacity="1" style="display: block;"><g opacity="1" transform="matrix(1,0,0,1,36.11399841308594,63.654998779296875)">
<path fill="rgb(230,160,155)" fill-opacity="1" d=" M-11.156999588012695,44.38600158691406 C1.8220000267028809,45.07400131225586 26.547000885009766,28.822999954223633 32.50699996948242,17.273000717163086 C34.63199996948242,13.154999732971191 34.29499816894531,2.1389999389648438 34.637001037597656,-3.546999931335449 C35.86399841308594,-24.010000228881836 25.457000732421875,-36.654998779296875 12.53499984741211,-42.11199951171875 C7.0879998207092285,-44.39699935913086 -10.76099967956543,-45.07400131225586 -15.944000244140625,-44.32400131225586 C-33.02899932861328,-41.80400085449219 -33.44499969482422,-26.916000366210938 -34.582000732421875,-9.696000099182129 C-35.86399841308594,9.623000144958496 -34.04100036621094,43.17100143432617 -11.156999588012695,44.38600158691406z"></path></g><g opacity="1" transform="matrix(1,0,0,1,79.04000091552734,101.5270004272461)">
<path fill="rgb(48,32,19)" fill-opacity="1" d=" M-15.767999649047852,-101.1050033569336 C1.725000023841858,-101.13700103759766 11.824999809265137,-85.73400115966797 17.944000244140625,-70.66100311279297 C43.12699890136719,-8.628999710083008 19.232999801635742,83.80799865722656 25.548999786376953,88.80400085449219 C25.548999786376953,88.80400085449219 18.68000030517578,94.06700134277344 8.642999649047852,97.5739974975586 C7.336999893188477,98.02999877929688 6.110000133514404,75.37100219726562 6.110000133514404,75.37100219726562 C6.110000133514404,75.37100219726562 -1.4889999628067017,100.23200225830078 -4.742000102996826,100.49400329589844 C-12.729999542236328,101.13600158691406 -21.46299934387207,99.74700164794922 -29.841999053955078,94.24299621582031 C-29.841999053955078,94.24299621582031 1.0779999494552612,-29.47599983215332 -14.276000022888184,-50.584999084472656 C-21.409000396728516,-60.39099884033203 -43.12699890136719,-101.05500030517578 -15.767999649047852,-101.1050033569336z"></path></g><g opacity="1" transform="matrix(1,0,0,1,11.942000389099121,61.81700134277344)">
<path fill="rgb(48,32,19)" fill-opacity="1" d=" M6.150000095367432,15.309000015258789 C4.918000221252441,14.895000457763672 -1.2630000114440918,12.67199993133545 -2.068000078201294,9.628000259399414 C-2.24399995803833,8.956999778747559 -2.263000011444092,7.941999912261963 -1.3489999771118164,6.919000148773193 C3.5999999046325684,1.3880000114440918 3.134000062942505,-6.5289998054504395 2.9749999046325684,-8.178000450134277 C2.2130000591278076,-9.088000297546387 -0.9399999976158142,-12.305999755859375 -6.288000106811523,-10.859000205993652 C-6.288000106811523,-10.859000205993652 -6.923999786376953,-13.204000473022461 -6.923999786376953,-13.204000473022461 C0.8339999914169312,-15.309000015258789 4.965000152587891,-9.604000091552734 5.138000011444092,-9.361000061035156 C5.138000011444092,-9.361000061035156 5.307000160217285,-9.121000289916992 5.307000160217285,-9.121000289916992 C5.307000160217285,-9.121000289916992 5.349999904632568,-8.829999923706055 5.349999904632568,-8.829999923706055 C5.408999919891357,-8.41100025177002 6.754000186920166,1.5099999904632568 0.4650000035762787,8.539999961853027 C0.23000000417232513,8.802000045776367 0.2630000114440918,8.925000190734863 0.2849999964237213,9.005999565124512 C0.6179999709129333,10.267999649047852 4.355000019073486,12.138999938964844 6.923999786376953,13.005999565124512 C6.923999786376953,13.005999565124512 6.150000095367432,15.309000015258789 6.150000095367432,15.309000015258789z"></path></g><g opacity="1" transform="matrix(1,0,0,1,27.80299949645996,19.80699920654297)">
<path fill="rgb(48,32,19)" fill-opacity="1" d=" M-24.900999069213867,16.81100082397461 C-27.523000717163086,10.472000122070312 -24.618999481201172,-2.01200008392334 -7.896999835968018,-9.892999649047852 C12.598999977111816,-19.55699920654297 25.493000030517578,-7.793000221252441 27.523000717163086,5.934000015258789 C14.142999649047852,-0.4519999921321869 -11.083999633789062,19.555999755859375 -24.900999069213867,16.81100082397461z"></path></g><g opacity="1" transform="matrix(1,0,0,1,72.03500366210938,61.93299865722656)">
<path fill="rgb(230,160,155)" fill-opacity="1" d=" M-12.125,-0.7279999852180481 C-12.526000022888184,5.9679999351501465 -7.425000190734863,11.720999717712402 -0.7289999723434448,12.12399959564209 C5.965000152587891,12.526000022888184 11.720999717712402,7.425000190734863 12.121999740600586,0.7289999723434448 C12.526000022888184,-5.9670000076293945 7.422999858856201,-11.720999717712402 0.7279999852180481,-12.12399959564209 C-5.968999862670898,-12.526000022888184 -11.722000122070312,-7.423999786376953 -12.125,-0.7279999852180481z"></path></g><g opacity="1" transform="matrix(1,0,0,1,71.99500274658203,60.47100067138672)">
<path fill="rgb(48,32,19)" fill-opacity="1" d=" M-2.062999963760376,10.060999870300293 C-2.5,10.060999870300293 -2.938999891281128,10.005999565124512 -3.3589999675750732,9.866999626159668 C-4.236000061035156,9.57699966430664 -4.913000106811523,8.970000267028809 -5.315000057220459,8.109999656677246 C-6.254000186920166,6.107999801635742 -5.0370001792907715,4.927000045776367 -4.309999942779541,4.2210001945495605 C-3.5840001106262207,3.5169999599456787 -3.010999917984009,2.9609999656677246 -3.180000066757202,1.5190000534057617 C-3.3269999027252197,0.2750000059604645 -3.9189999103546143,-0.6840000152587891 -4.492000102996826,-1.6119999885559082 C-5.392000198364258,-3.069000005722046 -6.752999782562256,-5.269999980926514 -3.552000045776367,-7.303999900817871 C0.7789999842643738,-10.060999870300293 6.156000137329102,-3.867000102996826 6.752999782562256,-3.1510000228881836 C6.752999782562256,-3.1510000228881836 4.886000156402588,-1.590000033378601 4.886000156402588,-1.590000033378601 C3.7249999046325684,-2.9779999256134033 -0.08500000089406967,-6.630000114440918 -2.246999979019165,-5.251999855041504 C-3.421999931335449,-4.505000114440918 -3.4030001163482666,-4.474999904632568 -2.4240000247955322,-2.890000104904175 C-1.7790000438690186,-1.8450000286102295 -0.9750000238418579,-0.5429999828338623 -0.765999972820282,1.2330000400543213 C-0.453000009059906,3.868000030517578 -1.7549999952316284,5.13100004196167 -2.617000102996826,5.966000080108643 C-3.318000078201294,6.645999908447266 -3.312000036239624,6.6529998779296875 -3.115000009536743,7.077000141143799 C-2.99399995803833,7.333000183105469 -2.8399999141693115,7.478000164031982 -2.5980000495910645,7.558000087738037 C-1.7999999523162842,7.828000068664551 -0.3799999952316284,7.333000183105469 0.3230000138282776,6.959000110626221 C0.3230000138282776,6.959000110626221 1.468999981880188,9.104999542236328 1.468999981880188,9.104999542236328 C1.246999979019165,9.223999977111816 -0.37599998712539673,10.060999870300293 -2.062999963760376,10.060999870300293z"></path></g><g opacity="1" transform="matrix(1,0,0,1,25.920000076293945,85.66699981689453)">
<path fill="rgb(48,32,19)" fill-opacity="1" d=" M3.74399995803833,2.924999952316284 C2.1429998874664307,2.924999952316284 0.7870000004768372,2.305000066757202 -0.6069999933242798,1.6690000295639038 C-2.746000051498413,0.6919999718666077 -5.168000221252441,-0.41200000047683716 -9.446000099182129,0.2029999941587448 C-9.446000099182129,0.2029999941587448 -9.793999671936035,-2.2009999752044678 -9.793999671936035,-2.2009999752044678 C-4.822000026702881,-2.924999952316284 -1.9220000505447388,-1.6019999980926514 0.40299999713897705,-0.5419999957084656 C3.0859999656677246,0.6809999942779541 4.564000129699707,1.3509999513626099 8.267999649047852,-1.6299999952316284 C8.267999649047852,-1.6299999952316284 9.793999671936035,0.26499998569488525 9.793999671936035,0.26499998569488525 C7.311999797821045,2.26200008392334 5.3979997634887695,2.924999952316284 3.74399995803833,2.924999952316284z"></path></g><g opacity="1" transform="matrix(1,0,0,1,34.599998474121094,49.902000427246094)">
<path fill="rgb(48,32,19)" fill-opacity="1" d=" M6.627999782562256,4.48799991607666 C-2.8269999027252197,-1.1360000371932983 -5.84499979019165,2.7130000591278076 -5.877999782562256,2.753999948501587 C-5.877999782562256,2.753999948501587 -7.873000144958496,1.3650000095367432 -7.873000144958496,1.3650000095367432 C-7.709000110626221,1.1230000257492065 -3.7009999752044678,-4.48799991607666 7.873000144958496,2.3989999294281006 C7.873000144958496,2.3989999294281006 6.627999782562256,4.48799991607666 6.627999782562256,4.48799991607666z"></path></g></g><g transform="matrix(-0.3229759931564331,0.9464071989059448,-0.9464071989059448,-0.3229759931564331,527.595947265625,109.40129089355469)" opacity="1" style="display: block;"><g opacity="1" transform="matrix(1,0,0,1,50.56700134277344,25.177000045776367)">
<path fill="rgb(230,160,155)" fill-opacity="1" d=" M36.777000427246094,-3.614000082015991 C32.64899826049805,-4.197000026702881 28.29400062561035,-6.9730000495910645 21.027000427246094,-13.906999588012695 C9.484999656677246,-24.927000045776367 6.861000061035156,-21.77899932861328 -7.307000160217285,-17.58099937438965 C-21.474000930786133,-13.383000373840332 -25.67099952697754,-21.517000198364258 -32.233001708984375,-6.0370001792907715 C-38.790000915527344,9.442000389099121 -50.31700134277344,12.432000160217285 -50.071998596191406,15.73900032043457 C-49.66299819946289,21.26099967956543 -33.9379997253418,14.6899995803833 -33.9379997253418,14.6899995803833 C-33.9379997253418,14.6899995803833 -33.9370002746582,23.47800064086914 -28.163999557495117,23.739999771118164 C-22.39299964904785,24.003000259399414 -25.016000747680664,16.788999557495117 -22.39299964904785,11.279000282287598 C-19.768999099731445,5.769999980926514 -6.519000053405762,-0.004000000189989805 -3.369999885559082,11.409000396728516 C-0.2240000069141388,22.822999954223633 13.418999671936035,24.659000396728516 13.418999671936035,24.659000396728516 C13.418999671936035,24.659000396728516 36.07500076293945,24.659000396728516 36.07500076293945,24.659000396728516 C48.31800079345703,24.927000045776367 50.31800079345703,-3.072999954223633 36.777000427246094,-3.614000082015991z"></path></g></g><g transform="matrix(0.9955570101737976,0.09416044503450394,-0.09416044503450394,0.9955570101737976,507.5918884277344,64.46011352539062)" opacity="1" style="display: block;"><g opacity="1" transform="matrix(1,0,0,1,3.5269999504089355,2.984999895095825)">
<path fill="rgb(48,32,19)" fill-opacity="1" d=" M3.247999906539917,-0.8999999761581421 C3.265000104904175,-0.7350000143051147 3.2780001163482666,-0.5680000185966492 3.2690000534057617,-0.39800000190734863 C3.1619999408721924,1.378999948501587 1.6319999694824219,2.734999895095825 -0.1469999998807907,2.628000020980835 C-1.9249999523162842,2.5209999084472656 -3.2780001163482666,0.9929999709129333 -3.1710000038146973,-0.7860000133514404 C-3.125999927520752,-1.5440000295639038 -2.815000057220459,-2.2119998931884766 -2.3450000286102295,-2.7339999675750732 C-0.5759999752044678,-1.8650000095367432 1.312000036239624,-1.2580000162124634 3.247999906539917,-0.8999999761581421z"></path></g></g><g transform="matrix(0.9955570101737976,0.09416044503450394,-0.09416044503450394,0.9955570101737976,482.56524658203125,60.56729507446289)" opacity="1" style="display: block;"><g opacity="1" transform="matrix(1,0,0,1,3.5269999504089355,2.984999895095825)">
<path fill="rgb(48,32,19)" fill-opacity="1" d=" M3.247999906539917,-0.8989999890327454 C3.265000104904175,-0.734000027179718 3.2780001163482666,-0.5690000057220459 3.2690000534057617,-0.39800000190734863 C3.1619999408721924,1.378999948501587 1.6319999694824219,2.734999895095825 -0.1469999998807907,2.628000020980835 C-1.9249999523162842,2.5209999084472656 -3.2769999504089355,0.9929999709129333 -3.1710000038146973,-0.7850000262260437 C-3.125,-1.5429999828338623 -2.812999963760376,-2.2119998931884766 -2.3450000286102295,-2.734999895095825 C-0.5730000138282776,-1.8650000095367432 1.312000036239624,-1.2589999437332153 3.247999906539917,-0.8989999890327454z"></path></g></g><g transform="matrix(1,0,0,1,0.238006591796875,200.54800415039062)" opacity="1" style="display: block;"><g opacity="1" transform="matrix(1,0,0,1,322.1440124511719,148.73899841308594)">
<path fill="rgb(48,32,19)" fill-opacity="1" d=" M-91.06700134277344,2.499000072479248 C-91.06700134277344,3.071000099182129 -90.60399627685547,3.5369999408721924 -90.02899932861328,3.5369999408721924 C-90.02899932861328,3.5369999408721924 88.99400329589844,3.5369999408721924 88.99400329589844,3.5369999408721924 C90.14099884033203,3.5369999408721924 91.06700134277344,2.6080000400543213 91.06700134277344,1.4620000123977661 C91.06700134277344,1.4620000123977661 91.06700134277344,-3.5369999408721924 91.06700134277344,-3.5369999408721924 C91.06700134277344,-3.5369999408721924 -91.06700134277344,-3.5369999408721924 -91.06700134277344,-3.5369999408721924 C-91.06700134277344,-3.5369999408721924 -91.06700134277344,2.499000072479248 -91.06700134277344,2.499000072479248z"></path></g><g opacity="1" transform="matrix(1,0,0,1,393.02301025390625,143.8000030517578)">
<path fill="rgb(48,32,19)" fill-opacity="1" d=" M-3.196000099182129,-0.7059999704360962 C-3.196000099182129,-0.7059999704360962 -3.196000099182129,1.4010000228881836 -3.196000099182129,1.4010000228881836 C-3.196000099182129,1.4010000228881836 3.196000099182129,1.4010000228881836 3.196000099182129,1.4010000228881836 C3.196000099182129,1.4010000228881836 3.196000099182129,-1.4010000228881836 3.196000099182129,-1.4010000228881836 C3.196000099182129,-1.4010000228881836 -2.500999927520752,-1.4010000228881836 -2.500999927520752,-1.4010000228881836 C-2.884999990463257,-1.4010000228881836 -3.196000099182129,-1.090000033378601 -3.196000099182129,-0.7059999704360962z"></path></g><g opacity="1" transform="matrix(1,0,0,1,385.60699462890625,143.8000030517578)">
<path fill="rgb(48,32,19)" fill-opacity="1" d=" M-3.196000099182129,-0.7059999704360962 C-3.196000099182129,-0.7059999704360962 -3.196000099182129,1.4010000228881836 -3.196000099182129,1.4010000228881836 C-3.196000099182129,1.4010000228881836 3.196000099182129,1.4010000228881836 3.196000099182129,1.4010000228881836 C3.196000099182129,1.4010000228881836 3.196000099182129,-1.4010000228881836 3.196000099182129,-1.4010000228881836 C3.196000099182129,-1.4010000228881836 -2.497999906539917,-1.4010000228881836 -2.497999906539917,-1.4010000228881836 C-2.882999897003174,-1.4010000228881836 -3.196000099182129,-1.090000033378601 -3.196000099182129,-0.7059999704360962z"></path></g><g opacity="1" transform="matrix(1,0,0,1,378.1919860839844,143.8000030517578)">
<path fill="rgb(48,32,19)" fill-opacity="1" d=" M-3.197000026702881,-0.7059999704360962 C-3.197000026702881,-0.7059999704360962 -3.197000026702881,1.4010000228881836 -3.197000026702881,1.4010000228881836 C-3.197000026702881,1.4010000228881836 3.197000026702881,1.4010000228881836 3.197000026702881,1.4010000228881836 C3.197000026702881,1.4010000228881836 3.197000026702881,-1.4010000228881836 3.197000026702881,-1.4010000228881836 C3.197000026702881,-1.4010000228881836 -2.496000051498413,-1.4010000228881836 -2.496000051498413,-1.4010000228881836 C-2.882999897003174,-1.4010000228881836 -3.197000026702881,-1.090000033378601 -3.197000026702881,-0.7059999704360962z"></path></g><g opacity="1" transform="matrix(1,0,0,1,347.29901123046875,143.8000030517578)">
<path fill="rgb(48,32,19)" fill-opacity="1" d=" M-3.196000099182129,-0.7059999704360962 C-3.196000099182129,-0.7059999704360962 -3.196000099182129,1.4010000228881836 -3.196000099182129,1.4010000228881836 C-3.196000099182129,1.4010000228881836 3.196000099182129,1.4010000228881836 3.196000099182129,1.4010000228881836 C3.196000099182129,1.4010000228881836 3.196000099182129,-1.4010000228881836 3.196000099182129,-1.4010000228881836 C3.196000099182129,-1.4010000228881836 -2.500999927520752,-1.4010000228881836 -2.500999927520752,-1.4010000228881836 C-2.884999990463257,-1.4010000228881836 -3.196000099182129,-1.090000033378601 -3.196000099182129,-0.7059999704360962z"></path></g><g opacity="1" transform="matrix(1,0,0,1,339.8840026855469,143.8000030517578)">
<path fill="rgb(48,32,19)" fill-opacity="1" d=" M-3.196000099182129,-0.7059999704360962 C-3.196000099182129,-0.7059999704360962 -3.196000099182129,1.4010000228881836 -3.196000099182129,1.4010000228881836 C-3.196000099182129,1.4010000228881836 3.196000099182129,1.4010000228881836 3.196000099182129,1.4010000228881836 C3.196000099182129,1.4010000228881836 3.196000099182129,-1.4010000228881836 3.196000099182129,-1.4010000228881836 C3.196000099182129,-1.4010000228881836 -2.497999906539917,-1.4010000228881836 -2.497999906539917,-1.4010000228881836 C-2.882999897003174,-1.4010000228881836 -3.196000099182129,-1.090000033378601 -3.196000099182129,-0.7059999704360962z"></path></g><g opacity="1" transform="matrix(1,0,0,1,252.8489990234375,143.8000030517578)">
<path fill="rgb(48,32,19)" fill-opacity="1" d=" M-3.196000099182129,-0.7059999704360962 C-3.196000099182129,-0.7059999704360962 -3.196000099182129,1.4010000228881836 -3.196000099182129,1.4010000228881836 C-3.196000099182129,1.4010000228881836 3.196000099182129,1.4010000228881836 3.196000099182129,1.4010000228881836 C3.196000099182129,1.4010000228881836 3.196000099182129,-1.4010000228881836 3.196000099182129,-1.4010000228881836 C3.196000099182129,-1.4010000228881836 -2.497999906539917,-1.4010000228881836 -2.497999906539917,-1.4010000228881836 C-2.882999897003174,-1.4010000228881836 -3.196000099182129,-1.090000033378601 -3.196000099182129,-0.7059999704360962z"></path></g><g opacity="1" transform="matrix(1,0,0,1,245.4340057373047,143.8000030517578)">
<path fill="rgb(48,32,19)" fill-opacity="1" d=" M-3.196000099182129,-0.7059999704360962 C-3.196000099182129,-0.7059999704360962 -3.196000099182129,1.4010000228881836 -3.196000099182129,1.4010000228881836 C-3.196000099182129,1.4010000228881836 3.196000099182129,1.4010000228881836 3.196000099182129,1.4010000228881836 C3.196000099182129,1.4010000228881836 3.196000099182129,-1.4010000228881836 3.196000099182129,-1.4010000228881836 C3.196000099182129,-1.4010000228881836 -2.497999906539917,-1.4010000228881836 -2.497999906539917,-1.4010000228881836 C-2.882999897003174,-1.4010000228881836 -3.196000099182129,-1.090000033378601 -3.196000099182129,-0.7059999704360962z"></path></g><g opacity="1" transform="matrix(1,0,0,1,362.7250061035156,143.8000030517578)">
<path fill="rgb(48,32,19)" fill-opacity="1" d=" M-10.984999656677246,-0.7059999704360962 C-10.984999656677246,-0.7059999704360962 -10.984999656677246,1.4010000228881836 -10.984999656677246,1.4010000228881836 C-10.984999656677246,1.4010000228881836 10.984999656677246,1.4010000228881836 10.984999656677246,1.4010000228881836 C10.984999656677246,1.4010000228881836 10.984999656677246,-1.4010000228881836 10.984999656677246,-1.4010000228881836 C10.984999656677246,-1.4010000228881836 -10.288999557495117,-1.4010000228881836 -10.288999557495117,-1.4010000228881836 C-10.675000190734863,-1.4010000228881836 -10.984999656677246,-1.090000033378601 -10.984999656677246,-0.7059999704360962z"></path></g><g opacity="1" transform="matrix(1,0,0,1,229.1540069580078,143.8000030517578)">
<path fill="rgb(48,32,19)" fill-opacity="1" d=" M-10.987000465393066,-0.7059999704360962 C-10.987000465393066,-0.7059999704360962 -10.987000465393066,1.4010000228881836 -10.987000465393066,1.4010000228881836 C-10.987000465393066,1.4010000228881836 10.987000465393066,1.4010000228881836 10.987000465393066,1.4010000228881836 C10.987000465393066,1.4010000228881836 10.987000465393066,-1.4010000228881836 10.987000465393066,-1.4010000228881836 C10.987000465393066,-1.4010000228881836 -10.288999557495117,-1.4010000228881836 -10.288999557495117,-1.4010000228881836 C-10.673999786376953,-1.4010000228881836 -10.987000465393066,-1.090000033378601 -10.987000465393066,-0.7059999704360962z"></path></g><g opacity="1" transform="matrix(1,0,0,1,295.9110107421875,143.8000030517578)">
<path fill="rgb(48,32,19)" fill-opacity="1" d=" M-38.150001525878906,-0.7059999704360962 C-38.150001525878906,-0.7059999704360962 -38.150001525878906,1.4010000228881836 -38.150001525878906,1.4010000228881836 C-38.150001525878906,1.4010000228881836 38.150001525878906,1.4010000228881836 38.150001525878906,1.4010000228881836 C38.150001525878906,1.4010000228881836 38.150001525878906,-1.4010000228881836 38.150001525878906,-1.4010000228881836 C38.150001525878906,-1.4010000228881836 -37.45399856567383,-1.4010000228881836 -37.45399856567383,-1.4010000228881836 C-37.8380012512207,-1.4010000228881836 -38.150001525878906,-1.090000033378601 -38.150001525878906,-0.7059999704360962z"></path></g><g opacity="1" transform="matrix(1,0,0,1,257.322998046875,76.4280014038086)">
<path fill="rgb(48,32,19)" fill-opacity="1" d=" M-11.428999900817871,-64.93699645996094 C-12.906000137329102,-70.5989990234375 -18.29400062561035,-75 -24.118000030517578,-74.91899871826172 C-24.118000030517578,-74.91899871826172 17.149999618530273,75 17.149999618530273,75 C17.149999618530273,75 24.118000030517578,72.65299987792969 22.277999877929688,65.01300048828125 C20.742000579833984,58.632999420166016 -3.4760000705718994,-34.39699935913086 -11.428999900817871,-64.93699645996094z"></path></g><g opacity="1" transform="matrix(1,0,0,1,154.6909942626953,73.29399871826172)">
<path fill="rgb(105,134,208)" fill-opacity="1" d=" M77.12300109863281,-71.86699676513672 C77.12300109863281,-71.86699676513672 -113.55400085449219,-71.86699676513672 -113.55400085449219,-71.86699676513672 C-116.21800231933594,-71.86699676513672 -118.1729965209961,-69.35800170898438 -117.51799774169922,-66.77400207519531 C-117.51799774169922,-66.77400207519531 -82.41999816894531,71.86699676513672 -82.41999816894531,71.86699676513672 C-82.41999816894531,71.86699676513672 118.1729965209961,71.86699676513672 118.1729965209961,71.86699676513672 C118.1729965209961,71.86699676513672 82.73300170898438,-67.5 82.73300170898438,-67.5 C82.08200073242188,-70.06800079345703 79.7699966430664,-71.86699676513672 77.12300109863281,-71.86699676513672z"></path></g><g opacity="1" transform="matrix(1,0,0,1,117.0530014038086,53.229000091552734)">
<path fill="rgb(48,32,19)" fill-opacity="1" d=" M-55.74800109863281,52.979000091552734 C-55.74800109863281,52.979000091552734 -80.89800262451172,-46.369998931884766 -80.89800262451172,-46.369998931884766 C-81.30400085449219,-47.96799850463867 -80.95600128173828,-49.630001068115234 -79.94400024414062,-50.93000030517578 C-78.93199920654297,-52.23099899291992 -77.40599822998047,-52.979000091552734 -75.75499725341797,-52.979000091552734 C-75.75499725341797,-52.979000091552734 81.30400085449219,-52.979000091552734 81.30400085449219,-52.979000091552734 C81.30400085449219,-52.979000091552734 81.30400085449219,-50.547000885009766 81.30400085449219,-50.547000885009766 C81.30400085449219,-50.547000885009766 -75.75499725341797,-50.547000885009766 -75.75499725341797,-50.547000885009766 C-76.64800262451172,-50.547000885009766 -77.47699737548828,-50.141998291015625 -78.0250015258789,-49.4379997253418 C-78.5739974975586,-48.731998443603516 -78.76100158691406,-47.83300018310547 -78.54299926757812,-46.96699905395508 C-78.54299926757812,-46.96699905395508 -53.391998291015625,52.382999420166016 -53.391998291015625,52.382999420166016 C-53.391998291015625,52.382999420166016 -55.74800109863281,52.979000091552734 -55.74800109863281,52.979000091552734z"></path></g><g opacity="1" transform="matrix(1,0,0,1,171.83799743652344,148.73899841308594)">
<path fill="rgb(105,134,208)" fill-opacity="1" d=" M-99.9280014038086,2.499000072479248 C-99.9280014038086,3.071000099182129 -99.46299743652344,3.5369999408721924 -98.88999938964844,3.5369999408721924 C-98.88999938964844,3.5369999408721924 97.85299682617188,3.5369999408721924 97.85299682617188,3.5369999408721924 C99,3.5369999408721924 99.9280014038086,2.6080000400543213 99.9280014038086,1.4620000123977661 C99.9280014038086,1.4620000123977661 99.9280014038086,-3.5369999408721924 99.9280014038086,-3.5369999408721924 C99.9280014038086,-3.5369999408721924 -99.9280014038086,-3.5369999408721924 -99.9280014038086,-3.5369999408721924 C-99.9280014038086,-3.5369999408721924 -99.9280014038086,2.499000072479248 -99.9280014038086,2.499000072479248z"></path></g><g opacity="1" transform="matrix(1,0,0,1,154.9499969482422,145.2010040283203)">
<path fill="rgb(48,32,19)" fill-opacity="1" d=" M81.78399658203125,1.215999960899353 C81.78399658203125,1.215999960899353 -81.78399658203125,1.215999960899353 -81.78399658203125,1.215999960899353 C-81.78399658203125,1.215999960899353 -81.78399658203125,-1.215999960899353 -81.78399658203125,-1.215999960899353 C-81.78399658203125,-1.215999960899353 81.78399658203125,-1.215999960899353 81.78399658203125,-1.215999960899353 C81.78399658203125,-1.215999960899353 81.78399658203125,1.215999960899353 81.78399658203125,1.215999960899353z"></path></g><g opacity="1" transform="matrix(1,0,0,1,328.8080139160156,91.99099731445312)">
<path fill="rgb(48,32,19)" fill-opacity="1" d=" M84.40299987792969,54.42599868774414 C84.40299987792969,54.42599868774414 -56.72999954223633,54.42599868774414 -56.72999954223633,54.42599868774414 C-56.72999954223633,54.42599868774414 -84.40299987792969,-53.823001861572266 -84.40299987792969,-53.823001861572266 C-84.40299987792969,-53.823001861572266 -82.0469970703125,-54.42599868774414 -82.0469970703125,-54.42599868774414 C-82.0469970703125,-54.42599868774414 -54.84000015258789,51.99399948120117 -54.84000015258789,51.99399948120117 C-54.84000015258789,51.99399948120117 84.40299987792969,51.99399948120117 84.40299987792969,51.99399948120117 C84.40299987792969,51.99399948120117 84.40299987792969,54.42599868774414 84.40299987792969,54.42599868774414z"></path></g><g opacity="1" transform="matrix(1,0,0,1,63.5989990234375,465.2149963378906)">
<path fill="rgb(236,226,221)" fill-opacity="1" d=" M15.961999893188477,292.60198974609375 C15.961999893188477,292.60198974609375 -15.961999893188477,292.60198974609375 -15.961999893188477,292.60198974609375 C-15.961999893188477,292.60198974609375 -15.961999893188477,-292.60101318359375 -15.961999893188477,-292.60101318359375 C-15.961999893188477,-292.60101318359375 15.961999893188477,-292.60101318359375 15.961999893188477,-292.60101318359375 C15.961999893188477,-292.60101318359375 15.961999893188477,292.60198974609375 15.961999893188477,292.60198974609375z"></path></g><g opacity="1" transform="matrix(1,0,0,1,63.5989990234375,465.2149963378906)">
<path fill="rgb(219,201,194)" fill-opacity="1" d=" M-15.961000442504883,-292.6000061035156 C-15.961000442504883,-292.6000061035156 -15.961000442504883,-256.08099365234375 -15.961000442504883,-256.08099365234375 C-15.961000442504883,-256.08099365234375 0.9490000009536743,-256.08099365234375 0.9490000009536743,-256.08099365234375 C0.9490000009536743,-256.08099365234375 0.9490000009536743,292.60101318359375 0.9490000009536743,292.60101318359375 C0.9490000009536743,292.60101318359375 15.961000442504883,292.60101318359375 15.961000442504883,292.60101318359375 C15.961000442504883,292.60101318359375 15.961000442504883,-292.6000061035156 15.961000442504883,-292.6000061035156 C15.961000442504883,-292.6000061035156 -15.961000442504883,-292.6000061035156 -15.961000442504883,-292.6000061035156z"></path></g><g opacity="1" transform="matrix(1,0,0,1,64.54900360107422,483.4739990234375)">
<path fill="rgb(48,32,19)" fill-opacity="1" d=" M1.215000033378601,274.34100341796875 C1.215000033378601,274.34100341796875 -1.215000033378601,274.34100341796875 -1.215000033378601,274.34100341796875 C-1.215000033378601,274.34100341796875 -1.215000033378601,-274.34100341796875 -1.215000033378601,-274.34100341796875 C-1.215000033378601,-274.34100341796875 1.215000033378601,-274.34100341796875 1.215000033378601,-274.34100341796875 C1.215000033378601,-274.34100341796875 1.215000033378601,274.34100341796875 1.215000033378601,274.34100341796875z"></path></g><g opacity="1" transform="matrix(1,0,0,1,382.8739929199219,166.4739990234375)">
<path fill="rgb(255,255,255)" fill-opacity="1" d=" M-381.4079895019531,-14.345999717712402 C-381.4079895019531,-14.345999717712402 -381.4079895019531,14.345999717712402 -381.4079895019531,14.345999717712402 C-381.4079895019531,14.345999717712402 381.4079895019531,14.345999717712402 381.4079895019531,14.345999717712402 C379.31201171875,6.271999835968018 373.82000732421875,-8.390999794006348 372.17401123046875,-14.345999717712402 C372.17401123046875,-14.345999717712402 -381.4079895019531,-14.345999717712402 -381.4079895019531,-14.345999717712402z"></path></g><g opacity="1" transform="matrix(1,0,0,1,382.2659912109375,166.6649932861328)">
<path fill="rgb(48,32,19)" fill-opacity="1" d=" M382.0159912109375,15.371000289916992 C382.0159912109375,15.371000289916992 -382.0159912109375,15.371000289916992 -382.0159912109375,15.371000289916992 C-382.0159912109375,15.371000289916992 -382.0159912109375,-15.371000289916992 -382.0159912109375,-15.371000289916992 C-382.0159912109375,-15.371000289916992 299.8659973144531,-15.371000289916992 299.8659973144531,-15.371000289916992 C299.8659973144531,-15.371000289916992 299.8659973144531,-12.939000129699707 299.8659973144531,-12.939000129699707 C299.8659973144531,-12.939000129699707 -379.5849914550781,-12.939000129699707 -379.5849914550781,-12.939000129699707 C-379.5849914550781,-12.939000129699707 -379.5849914550781,12.940999984741211 -379.5849914550781,12.940999984741211 C-379.5849914550781,12.940999984741211 382.0159912109375,12.940999984741211 382.0159912109375,12.940999984741211 C382.0159912109375,12.940999984741211 382.0159912109375,15.371000289916992 382.0159912109375,15.371000289916992z"></path></g></g></g></g></svg>